<svg width="1276" height="198" viewBox="0 0 1276 198" fill="none" xmlns="http://www.w3.org/2000/svg">
<g style="mix-blend-mode:overlay" opacity="0.3">
<path d="M72.9053 123.003H22.9395V96.7676H72.9053C81.6064 96.7676 88.6377 95.3613 93.999 92.5488C99.3604 89.7363 103.271 85.8691 105.732 80.9473C108.281 75.9375 109.556 70.2246 109.556 63.8086C109.556 57.7441 108.281 52.0752 105.732 46.8018C103.271 41.4404 99.3604 37.1338 93.999 33.8818C88.6377 30.6299 81.6064 29.0039 72.9053 29.0039H33.0908V194.59H0V2.63672H72.9053C87.7588 2.63672 100.371 5.27344 110.742 10.5469C121.201 15.7324 129.155 22.9395 134.604 32.168C140.054 41.3086 142.778 51.7676 142.778 63.5449C142.778 75.9375 140.054 86.5723 134.604 95.4492C129.155 104.326 121.201 111.138 110.742 115.884C100.371 120.63 87.7588 123.003 72.9053 123.003Z" fill="white"/>
<path d="M185.941 2.63672H253.837C268.427 2.63672 280.863 4.83398 291.146 9.22852C301.43 13.623 309.296 20.127 314.745 28.7402C320.282 37.2656 323.051 47.8125 323.051 60.3809C323.051 69.9609 321.293 78.3984 317.777 85.6934C314.262 92.9883 309.296 99.1406 302.88 104.15C296.464 109.072 288.817 112.896 279.94 115.62L269.921 120.498H208.881L208.617 94.2627H254.364C262.274 94.2627 268.866 92.8564 274.14 90.0439C279.413 87.2314 283.368 83.4082 286.005 78.5742C288.729 73.6523 290.092 68.1152 290.092 61.9629C290.092 55.2832 288.773 49.4824 286.137 44.5605C283.588 39.5508 279.633 35.7275 274.271 33.0908C268.91 30.3662 262.099 29.0039 253.837 29.0039H219.032V194.59H185.941V2.63672ZM295.497 194.59L250.409 108.369L285.082 108.237L330.829 192.876V194.59H295.497Z" fill="white"/>
<path d="M522.571 93.3398V103.887C522.571 118.389 520.682 131.396 516.902 142.91C513.123 154.424 507.718 164.224 500.687 172.31C493.743 180.396 485.394 186.592 475.638 190.898C465.882 195.117 455.071 197.227 443.206 197.227C431.429 197.227 420.662 195.117 410.906 190.898C401.238 186.592 392.845 180.396 385.726 172.31C378.606 164.224 373.069 154.424 369.114 142.91C365.247 131.396 363.313 118.389 363.313 103.887V93.3398C363.313 78.8379 365.247 65.874 369.114 54.4482C372.981 42.9346 378.431 33.1348 385.462 25.0488C392.581 16.875 400.975 10.6787 410.643 6.45996C420.398 2.15332 431.165 0 442.942 0C454.808 0 465.618 2.15332 475.374 6.45996C485.13 10.6787 493.523 16.875 500.555 25.0488C507.586 33.1348 512.991 42.9346 516.771 54.4482C520.638 65.874 522.571 78.8379 522.571 93.3398ZM489.48 103.887V93.0762C489.48 82.3535 488.426 72.9053 486.316 64.7314C484.295 56.4697 481.263 49.5703 477.22 44.0332C473.265 38.4082 468.387 34.1895 462.586 31.377C456.785 28.4766 450.237 27.0264 442.942 27.0264C435.647 27.0264 429.144 28.4766 423.431 31.377C417.718 34.1895 412.84 38.4082 408.797 44.0332C404.842 49.5703 401.81 56.4697 399.7 64.7314C397.591 72.9053 396.536 82.3535 396.536 93.0762V103.887C396.536 114.609 397.591 124.102 399.7 132.363C401.81 140.625 404.886 147.612 408.929 153.325C413.06 158.95 417.981 163.213 423.694 166.113C429.407 168.926 435.911 170.332 443.206 170.332C450.589 170.332 457.137 168.926 462.85 166.113C468.562 163.213 473.396 158.95 477.352 153.325C481.307 147.612 484.295 140.625 486.316 132.363C488.426 124.102 489.48 114.609 489.48 103.887Z" fill="white"/>
<path d="M641.145 107.842H592.233L591.97 83.7158H634.685C641.892 83.7158 648 82.6611 653.01 80.5518C658.107 78.3545 661.975 75.2344 664.611 71.1914C667.248 67.0605 668.566 62.0947 668.566 56.2939C668.566 49.8779 667.336 44.6484 664.875 40.6055C662.414 36.5625 658.635 33.6182 653.537 31.7725C648.527 29.9268 642.111 29.0039 634.289 29.0039H602.253V194.59H569.162V2.63672H634.289C644.836 2.63672 654.24 3.64746 662.502 5.66895C670.852 7.69043 677.927 10.8545 683.728 15.1611C689.616 19.3799 694.055 24.7412 697.043 31.2451C700.119 37.749 701.657 45.4834 701.657 54.4482C701.657 62.3584 699.768 69.6094 695.988 76.2012C692.209 82.7051 686.628 88.0225 679.245 92.1533C671.862 96.2842 662.678 98.7451 651.691 99.5361L641.145 107.842ZM639.694 194.59H581.818L596.716 168.354H639.694C647.165 168.354 653.405 167.124 658.415 164.663C663.425 162.114 667.16 158.643 669.621 154.248C672.17 149.766 673.444 144.536 673.444 138.56C673.444 132.319 672.346 126.914 670.148 122.344C667.951 117.686 664.479 114.126 659.733 111.665C654.987 109.116 648.791 107.842 641.145 107.842H603.967L604.23 83.7158H652.614L660.129 92.8125C670.676 93.1641 679.333 95.4932 686.101 99.7998C692.956 104.106 698.054 109.688 701.394 116.543C704.733 123.398 706.403 130.781 706.403 138.691C706.403 150.908 703.723 161.147 698.361 169.409C693.088 177.671 685.485 183.955 675.554 188.262C665.622 192.48 653.669 194.59 639.694 194.59Z" fill="white"/>
<path d="M873.492 168.354V194.59H777.12V168.354H873.492ZM786.349 2.63672V194.59H753.258V2.63672H786.349Z" fill="white"/>
<path d="M1038.21 168.354V194.59H936.299V168.354H1038.21ZM945.659 2.63672V194.59H912.568V2.63672H945.659ZM1024.89 82.793V108.633H936.299V82.793H1024.89ZM1037.55 2.63672V29.0039H936.299V2.63672H1037.55Z" fill="white"/>
<path d="M1092.18 2.63672H1121.71L1177.22 150.688L1232.59 2.63672H1262.12L1188.82 194.59H1165.35L1092.18 2.63672ZM1078.73 2.63672H1106.82L1111.69 130.781V194.59H1078.73V2.63672ZM1247.48 2.63672H1275.7V194.59H1242.61V130.781L1247.48 2.63672Z" fill="white"/>
</g>
</svg>
