<svg width="140" height="90" viewBox="0 0 140 90" fill="none" xmlns="http://www.w3.org/2000/svg">
<path d="M131.487 69.3503C131.027 68.9836 130.654 68.7867 130.236 68.7077C130.236 68.7047 130.23 68.6984 130.224 68.6921C129.968 68.4593 129.644 68.3191 129.304 68.2923C129.236 68.1595 129.146 68.0316 129.037 67.9207C128.433 67.3031 127.803 67.228 127.382 67.254C127.213 67.2692 127.057 67.3061 126.915 67.3558C126.818 67.2605 126.711 67.1768 126.588 67.1042C126.297 66.9418 125.978 66.874 125.66 66.9083C125.568 66.8795 125.469 66.8623 125.37 66.8511C125.249 66.7456 125.112 66.6543 124.958 66.5891C124.495 66.3876 123.956 66.4255 123.523 66.6942C123.488 66.7164 123.454 66.7387 123.419 66.7639C123.178 66.7573 122.93 66.7683 122.7 66.8404C122.628 66.7795 122.553 66.7245 122.471 66.6751C122.43 66.6519 122.383 66.6284 122.332 66.6048C122.304 66.5672 122.273 66.5295 122.242 66.4918C121.861 66.0512 121.269 65.8789 120.744 65.9957C120.579 65.9269 120.43 65.892 120.325 65.8745C120.018 65.8128 119.705 65.874 119.423 66.0027L119.258 65.9809C119.046 65.9487 118.837 65.9799 118.636 66.0433C118.595 66.0488 118.542 66.044 118.5 66.0523C118.318 65.9948 118.115 65.963 117.946 65.9692C117.704 65.9716 117.472 66.0285 117.261 66.1316C116.991 66.0003 116.686 65.9392 116.349 65.9877C116.16 66.0169 115.982 66.0796 115.823 66.1705L115.809 66.1457C115.748 66.1605 115.684 66.1722 115.614 66.1896C115.452 66.0639 115.256 65.9454 115.02 65.8339C114.728 65.7014 114.393 65.6568 114.076 65.7183C113.906 65.7508 113.787 65.8138 113.651 65.867C113.474 65.7829 113.281 65.7277 113.074 65.7169C112.662 65.6953 112.279 65.8431 111.987 66.0945C111.952 66.1066 111.915 66.1144 111.882 66.1292C111.613 65.9168 111.27 65.7816 110.901 65.8013L109.798 65.8217C109.777 65.8236 109.759 65.8227 109.741 65.8247C109.472 65.7174 109.169 65.6895 108.87 65.749C108.806 65.7636 108.735 65.781 108.662 65.8012C108.611 65.7895 108.56 65.7838 108.512 65.7783C108.221 65.8022 107.865 65.8646 107.56 66.035C107.231 65.9365 106.862 65.9413 106.531 66.0381L106.525 66.0378C106.427 66.0116 106.283 66.004 106.226 65.995C105.876 65.8264 105.479 65.7966 105.102 65.9091C105.054 65.9096 105.008 65.9132 104.96 65.9197C104.691 65.8154 104.424 65.7744 104.175 65.7583C104.027 65.7285 103.878 65.7315 103.731 65.7424C103.581 65.6433 103.447 65.5664 103.274 65.5231C103.088 65.4217 102.889 65.3439 102.668 65.3248C102.475 65.3147 102.26 65.3335 102.076 65.3929C102.019 65.3779 101.966 65.3661 101.909 65.3571C101.462 65.0152 100.851 64.9381 100.328 65.1721C99.9976 65.3231 99.7431 65.5742 99.5883 65.8786C99.3063 65.7917 98.9642 65.6986 98.5889 65.6639C98.4494 65.5605 98.2879 65.4769 98.1156 65.4258C97.9521 65.3781 97.7784 65.354 97.6272 65.3611C97.2254 65.2559 96.7998 65.3177 96.4504 65.5368C96.3164 65.617 96.2032 65.7042 96.1021 65.792C96.0744 65.8026 96.0495 65.8163 96.0217 65.8299C95.6896 65.9986 95.4673 66.0705 95.3491 66.1017C95.1052 66.0345 94.873 66.0144 94.6185 66.0613C94.5132 66.0155 94.4132 65.9597 94.2963 65.9378C94.2233 65.9238 94.1623 65.958 94.0912 65.9543C93.9574 65.8956 93.8426 65.7964 93.6953 65.7771C93.4645 65.747 93.2495 65.7627 93.0452 65.8031C92.7348 65.6817 92.3771 65.6569 92.0365 65.7653C91.8465 65.8214 91.679 65.9088 91.5311 66.0242C91.2414 65.967 90.8421 65.9881 90.4385 66.2044C90.3285 66.2316 90.2208 66.2711 90.1185 66.3228L89.9048 66.4288C89.6809 66.3841 89.4755 66.3883 89.2875 66.4055C89.2517 66.3976 89.2189 66.3899 89.1832 66.382C88.7285 66.0186 88.1045 65.9499 87.5761 66.1896C87.4028 66.2707 87.2498 66.3708 87.1108 66.4897C87.0927 66.4888 87.0747 66.4879 87.0535 66.4898C87.0508 66.4836 87.0451 66.4773 87.0335 66.4677C86.762 66.2942 86.3066 66.0029 85.7259 65.9724C85.7108 65.9716 85.6959 65.9679 85.6809 65.9671C85.1104 65.6276 84.3954 65.6833 83.8934 66.1078L83.8901 66.1136C83.4094 66.1335 82.9061 66.2363 82.436 66.3409C82.2887 66.3065 82.02 66.3484 81.8124 66.4141C81.7139 66.3898 81.6079 66.3818 81.5006 66.3764C81.4783 66.365 81.4561 66.3537 81.4313 66.3423C81.2041 66.2432 80.9677 66.2068 80.7257 66.2182C80.1587 65.927 79.4353 65.9703 78.9516 66.3926C78.9168 66.4238 78.8818 66.4581 78.8498 66.4925C78.7103 66.5062 78.582 66.5355 78.4655 66.5715C78.2001 66.5125 77.9342 66.5196 77.6767 66.5963C77.6033 66.6164 77.4825 66.6762 77.3675 66.7393C77.2827 66.7469 77.1973 66.7634 77.1147 66.7862C76.806 66.746 76.4952 66.7477 76.2469 66.8218C75.8424 66.7105 75.4054 66.7597 75.0406 66.984C74.8102 67.1191 74.6023 67.2284 74.3829 67.3281C74.1864 67.2788 73.9696 67.2704 73.7479 67.2979C73.4005 67.2496 73.0352 67.3116 72.7235 67.5026C72.708 67.5108 72.6893 67.5219 72.6736 67.533C72.6616 67.5324 72.6527 67.5289 72.6438 67.5255C72.2932 67.423 71.88 67.3052 71.4242 67.2512C71.1754 67.0489 70.8359 66.8478 70.5252 66.9036C70.0829 66.8804 69.6638 67.0477 69.3618 67.3414C68.4626 67.3424 67.4558 67.3828 66.7027 67.4756C66.3778 67.5156 66.0716 67.6588 65.8335 67.8838C65.8239 67.8953 65.7126 68.0036 65.6137 68.1066C65.4799 68.1266 65.3451 68.1647 65.2185 68.2211C64.9376 68.3417 64.651 68.4558 64.3635 68.5309C64.2767 68.4603 64.1832 68.4013 64.0803 68.3508C63.6803 68.1525 63.2251 68.1467 62.8277 68.3032C62.7523 68.3022 62.6802 68.2954 62.6259 68.2956C62.4775 68.3059 62.3342 68.3344 62.202 68.3816C62.0481 68.3825 61.8959 68.4076 61.7547 68.4543C61.689 68.4418 61.6195 68.4442 61.5568 68.4319C61.1324 68.4127 60.7261 68.5657 60.4245 68.8503C60.4119 68.8617 60.3962 68.8729 60.3775 68.8839L59.3075 68.921C59.1305 68.8456 58.9244 68.8048 58.7377 68.798C58.355 68.79 57.9889 68.924 57.7048 69.1646C57.4633 69.1098 57.1893 69.0985 56.8775 69.1753C56.691 69.2226 56.5148 69.3035 56.3581 69.4155C56.3278 69.4169 56.2974 69.4214 56.2668 69.4288C56.0161 69.3195 55.7407 69.278 55.4521 69.317C55.1726 69.3534 54.9162 69.4662 54.7055 69.6294C54.6813 69.6312 54.6573 69.6299 54.633 69.6316C54.3541 69.5419 54.041 69.5285 53.7445 69.6031C53.5384 69.5622 53.3359 69.5696 53.1345 69.6132C52.7742 69.6935 52.4651 69.8936 52.2515 70.1679C51.6406 70.1389 51.0465 70.1919 50.4948 70.2411C49.7611 70.3078 49.0703 70.3648 48.5137 70.2184C48.1894 70.1323 47.8503 70.1536 47.5421 70.2787C47.351 70.3558 47.147 70.4473 46.9368 70.5444C46.6524 70.6738 46.3434 70.8138 46.0703 70.9017C46.0136 70.8897 45.9597 70.8809 45.9027 70.8749L45.0145 70.7833C44.5124 70.6909 44.128 70.8871 43.8143 71.1741C43.2137 71.159 42.4034 71.2067 41.639 71.4539C41.4099 71.2838 41.147 71.1523 40.8478 71.1298C40.5318 71.1132 40.2197 71.1961 39.9246 71.3579L39.9218 71.3547L39.822 71.4156C39.819 71.4154 39.8189 71.4184 39.8159 71.4183L39.7098 71.4848L39.7127 71.488C39.7084 71.4912 39.7053 71.4953 39.701 71.4985C39.6921 71.5035 39.6812 71.5017 39.6725 71.5069C39.2894 71.7362 38.9653 71.9326 38.6234 72.1821C38.5299 72.1802 38.4302 72.184 38.3268 72.1996L38.2967 72.1981C38.2575 72.196 38.2213 72.1971 38.1822 72.1951C38.1201 72.1708 38.0578 72.1495 37.9923 72.134C37.5998 72.0233 37.2041 72.0897 36.869 72.2675C36.7532 72.2885 36.6281 72.315 36.4996 72.3503L36.4936 72.35C36.3142 72.2023 36.1026 72.0951 35.8732 72.041C35.4085 71.9265 34.9507 72.0257 34.5863 72.3011C33.9333 72.7868 32.2866 72.8898 31.1696 72.9604C30.9243 72.9777 30.6942 73.0497 30.4887 73.1712C30.0411 73.0185 29.5404 73.0734 29.1372 73.3407C29.0435 73.4019 28.9648 73.4639 28.8888 73.5321C28.797 73.5573 28.7017 73.5914 28.6119 73.6348C28.5481 73.6434 28.4632 73.651 28.3597 73.6696C28.0975 73.4906 27.8015 73.3819 27.4419 73.3931C27.3058 73.398 27.1721 73.4181 27.0465 73.4535C26.8943 73.4215 26.7353 73.4042 26.5807 73.4171C26.3869 73.431 21.7021 73.7624 16.478 74.7688C9.48469 76.098 4.98871 77.9715 3.04673 80.3231C2.7287 80.566 2.52003 80.8595 2.39079 81.0878L2.23419 81.2762C2.10236 81.435 2.01635 81.6153 1.95828 81.8025C1.81769 82.0746 1.74004 82.3794 1.75103 82.6663C1.76448 82.9855 1.8756 83.2828 2.05607 83.5236C2.06879 83.6265 2.08374 83.7445 2.11338 83.8692C2.09678 83.9555 2.08908 84.0452 2.09053 84.1325C2.09205 84.7365 2.46701 85.3542 3.02119 85.6026C3.11543 85.6466 3.31373 85.7201 3.57247 85.7336C3.73893 85.7814 3.92169 85.806 4.10393 85.7825C4.31597 85.7666 4.51815 85.7081 4.69517 85.6122C4.76897 85.6431 4.84594 85.6712 4.92039 85.6901C4.93496 85.6999 4.95254 85.7098 4.96711 85.7196C5.02539 85.7587 5.08988 85.7951 5.15178 85.8224C5.40573 86.043 5.72756 86.1771 6.06724 86.2009C6.25254 86.2347 6.39329 86.197 6.54924 86.1571C6.56667 86.17 6.58394 86.1859 6.60136 86.1989C6.9779 86.4981 7.47014 86.605 7.93484 86.4881C7.97649 86.4993 8.02115 86.5107 8.06296 86.5189C8.32492 86.5867 8.59838 86.607 8.84256 86.5537C8.84457 86.5538 8.84563 86.5529 8.84574 86.5509C8.87804 86.5676 8.91352 86.5815 8.94614 86.5922C9.13557 86.6622 9.37865 86.687 9.65294 86.6924C9.8256 86.7946 10.0212 86.8619 10.234 86.8881C10.2579 86.8924 10.2819 86.8966 10.3059 86.8979C10.7055 86.9308 11.1525 87.1526 11.6258 87.3907C12.102 87.6291 12.7077 87.9313 13.3955 88.0484C13.4528 88.1055 13.5164 88.1599 13.5862 88.2087C14.0545 88.5427 14.6559 88.5802 15.1605 88.3362C15.1565 88.3541 15.1676 88.3727 15.1998 88.3924C15.5399 88.5815 16.05 88.8637 16.6909 88.8972C16.9076 88.9086 17.1378 88.8906 17.3823 88.8313C17.4159 88.8241 17.4494 88.8168 17.4802 88.8064C18.3531 88.9603 19.1562 88.8341 19.8471 88.7201C20.337 88.6406 20.7845 88.5649 21.1231 88.6096C21.5088 88.6749 21.8028 88.5341 22.064 88.3284C22.2791 88.3126 22.4925 88.2697 22.6743 88.1981C23.5575 88.2715 24.5388 88.1997 25.5422 88.1081C26.2789 88.0415 27.0307 87.9727 27.7266 87.9942C27.8772 87.999 28.0289 87.983 28.1728 87.9424C29.4363 87.609 30.8159 87.48 32.2774 87.3402C33.669 87.2118 35.1032 87.0766 36.469 86.7486C36.5852 86.7186 36.6929 86.6791 36.795 86.6304C37.142 86.6305 37.5081 86.5536 37.8966 86.3937C38.2859 86.5643 38.7539 86.5588 39.159 86.3697C39.4682 86.2266 39.8753 86.2299 40.3909 86.2359C41.0515 86.2404 41.8748 86.2476 42.7019 85.8942C43.0188 85.9499 43.3662 85.9411 43.7121 85.7879C44.115 85.758 44.4776 85.6327 44.8314 85.501C45.1447 85.5114 45.4598 85.4288 45.7284 85.2535C45.8293 85.2288 45.9244 85.1977 46.0172 85.1545C46.3225 85.1434 46.5982 85.0648 46.8099 84.9977C47.156 85.0128 47.5101 84.9352 47.7957 84.782C47.9073 84.7247 48.1154 84.6124 48.2853 84.5372C48.7164 84.716 49.1612 84.7483 49.4467 84.7693C49.5549 84.778 49.6634 84.7807 49.7589 84.8007C50.0002 84.8584 50.2598 84.857 50.5134 84.7951C51.3423 84.5802 52.5934 84.2551 53.6626 84.233C53.9164 84.2252 54.1644 84.1571 54.3789 84.0361C54.4853 84.0207 54.5922 83.9962 54.7057 83.9601C55.0178 84.1087 55.3809 84.1458 55.7112 84.0609C56.3314 83.9131 56.8188 83.6502 57.207 83.4391C57.384 83.3432 57.5205 83.2722 57.6348 83.2212C57.7122 83.3003 57.8018 83.3742 57.8981 83.4363C58.3974 83.7539 59.0454 83.7669 59.5539 83.4479C59.6443 83.3926 59.7321 83.3281 59.8143 83.2572C60.0775 83.244 60.3352 83.1613 60.5575 83.0077C60.9729 83.0836 61.6669 83.1981 62.3898 82.8754C62.6697 83.0613 63.0024 83.1599 63.3599 83.1335C63.4506 83.1293 63.9538 83.0835 64.4562 82.8244C64.7868 82.8477 65.1499 82.7706 65.4437 82.5756C65.4469 82.5728 65.4499 82.5729 65.4531 82.5701C65.6824 82.6843 65.9213 82.7329 66.187 82.7288C66.7255 82.9884 67.2384 82.9311 67.5755 82.8316C68.1104 82.7004 68.6871 82.5173 69.2823 82.3291C70.3652 81.9892 71.4849 81.6362 72.337 81.6117C72.6602 81.6046 72.9328 81.5287 73.1519 81.378C73.1519 81.378 73.1549 81.3781 73.1577 81.3813C73.2435 81.4128 73.3299 81.4354 73.4195 81.4521C73.5724 81.5292 73.7356 81.5798 73.9034 81.6037C74.1874 81.7688 74.5212 81.8464 74.8705 81.8016L76.404 81.6145C76.4796 81.6095 76.5921 81.5943 76.7297 81.5595C78.2346 81.8006 79.0068 80.6541 79.322 80.1658C79.6081 80.1177 79.8833 79.9909 80.1051 79.7892C80.39 79.6478 80.6563 79.4033 80.8433 79.1157C80.9832 79.153 81.1268 79.1756 81.2837 79.1748C81.5884 79.1725 81.8735 79.066 82.1222 78.9032C82.257 78.9726 82.3926 79.0425 82.5444 79.0696C82.6101 79.0821 82.6731 79.0884 82.7393 79.0918C83.0122 79.1061 83.2683 78.9969 83.511 78.872C83.7003 78.943 83.8882 79.0073 84.0745 79.0026C84.4964 78.9834 85.0619 78.7967 85.4827 78.071C85.6093 78.0446 85.7404 78.052 85.8592 77.9933C85.8962 77.9751 85.9179 77.9269 85.9538 77.9047C85.9964 77.919 86.0392 77.9347 86.082 77.9448C86.4061 78.1511 86.7971 78.2317 87.181 78.1617C87.2139 78.1664 87.25 78.1683 87.2831 78.1701C87.8458 78.1996 88.3549 77.9257 88.6463 77.4903C88.9279 77.7004 89.2659 77.8142 89.6649 77.7991C89.8949 77.7871 90.1124 77.7234 90.3049 77.6193C90.5789 77.6877 90.8858 77.7038 91.1474 77.6634C91.3276 77.9102 91.5802 78.0978 91.8764 78.2035C92.2172 78.3205 92.5734 78.3181 92.9021 78.2061C93.9432 78.1936 94.4389 77.6742 94.6792 77.2257C94.86 77.3096 95.0277 77.4371 95.2228 77.4473C95.632 77.4687 96.0467 77.3282 96.364 77.0293L96.5773 76.8279C96.5909 76.8235 96.6059 76.8251 96.6193 76.8203C96.848 76.7752 97.051 76.7017 97.2337 76.6121C97.6819 76.867 98.2479 76.8907 98.7197 76.6389C98.9337 76.527 99.1552 76.3312 99.3331 76.1032C99.3671 76.0869 99.4012 76.0707 99.4322 76.0543C99.659 75.988 100.016 76.0218 100.282 75.9035C100.509 75.8076 100.709 75.6653 100.875 75.4913C100.943 75.5125 100.987 75.5748 101.059 75.5866C101.116 75.5956 101.173 75.6016 101.23 75.6046C101.281 75.6072 101.323 75.5727 101.374 75.5704C101.466 75.702 101.566 75.8316 101.701 75.9328C101.916 76.0913 102.156 76.185 102.401 76.2188C103.188 76.8671 104.345 76.8406 105.178 76.3674C105.502 76.186 105.746 75.8923 105.87 75.5413C105.945 75.3318 105.987 75.1056 105.984 74.8801C106.496 75.1263 107.056 75.1977 107.6 75.061C107.741 75.0232 107.877 74.9673 108.001 74.8956C108.455 75.1057 108.99 75.0767 109.436 74.7996C109.614 74.6902 109.754 74.5456 109.868 74.3886C110.093 74.5365 110.347 74.643 110.629 74.6578L110.657 74.6592C110.719 74.6613 110.777 74.6403 110.838 74.635C110.98 74.6713 111.124 74.7086 111.276 74.7066C111.602 74.6937 111.901 74.5801 112.143 74.3975C112.413 74.5409 112.723 74.5992 113.045 74.559C113.31 74.5248 113.553 74.4264 113.757 74.2778C113.817 74.2869 113.874 74.2929 113.934 74.2961C114.045 74.3394 114.147 74.363 114.255 74.3953C114.336 74.4677 114.406 74.5495 114.503 74.6053C114.72 74.7309 114.955 74.7973 115.192 74.8098C115.689 74.8358 116.186 74.6214 116.504 74.1994L116.506 74.1966C116.631 74.2349 116.759 74.2638 116.886 74.2705C117.186 74.5356 117.568 74.6638 117.961 74.6574C118.118 74.7618 118.298 74.8523 118.493 74.9286C119.161 75.192 119.903 74.9695 120.313 74.396C120.371 74.3179 120.418 74.2332 120.459 74.1482C120.768 74.2936 121.13 74.3456 121.484 74.2651C121.851 74.1821 122.822 73.9655 123.207 73.0091C123.209 73.0043 123.211 72.9988 123.212 72.994C123.241 72.9808 123.261 72.9583 123.289 72.9432C123.308 72.9378 123.326 72.9337 123.347 72.9263C123.437 72.934 123.56 72.9405 123.708 72.9422C124.068 73.1504 124.497 73.2029 124.892 73.0884C125.218 73.1446 125.596 73.1223 126.036 73.0282C126.369 73.4693 126.927 73.7029 127.471 73.6262C127.577 73.6137 127.678 73.592 127.773 73.5609C127.911 73.6252 128.063 73.6663 128.219 73.6864C128.976 73.7501 129.488 73.5366 129.793 73.2912C130.115 73.26 130.569 73.0614 130.91 72.8328C131.056 72.7413 131.186 72.6279 131.286 72.504C131.479 72.2617 131.588 71.9789 131.615 71.6948C131.732 71.5357 131.831 71.3726 131.908 71.2174C132.22 70.5726 132.046 69.8003 131.487 69.3503ZM46.3668 84.9325C46.367 84.9295 46.37 84.9296 46.3732 84.9268C46.4593 84.9524 46.549 84.9691 46.6387 84.9828C46.5547 84.9754 46.4619 84.9615 46.3668 84.9325ZM67.4635 81.9754C67.4702 81.9637 67.4768 81.952 67.4836 81.9374L67.4865 81.9405C67.4798 81.9522 67.4732 81.9639 67.4635 81.9754Z" fill="#6461E4"/>
<path d="M22.8468 54.69C14.6568 54.69 9.19685 51.47 5.27685 47.62L10.1068 41.11C12.9768 43.98 16.6868 46.36 21.4468 46.36C26.9068 46.36 30.6168 42.93 30.6168 36.77C30.6168 30.75 27.1168 27.39 21.9368 27.39C18.8568 27.39 17.1768 28.16 14.1668 30.12L9.40685 27.04L10.8768 1.91H38.5969V10.52H19.7668L18.7868 21.51C20.8168 20.6 22.6368 20.11 25.0168 20.11C33.6968 20.11 40.9768 25.22 40.9768 36.56C40.9768 48.04 32.3668 54.69 22.8468 54.69Z" fill="#5B54E7"/>
<path d="M72.4659 54.69C61.8959 54.69 54.8959 45.52 54.8959 27.6C54.8959 9.75 61.8959 1 72.4659 1C82.9659 1 89.9659 9.75 89.9659 27.6C89.9659 45.52 82.9659 54.69 72.4659 54.69ZM72.4659 46.64C76.9459 46.64 80.2359 42.16 80.2359 27.6C80.2359 13.11 76.9459 8.91 72.4659 8.91C67.9859 8.91 64.6259 13.11 64.6259 27.6C64.6259 42.16 67.9859 46.64 72.4659 46.64Z" fill="#5B54E7"/>
<path d="M120.755 54.69C110.185 54.69 103.185 45.52 103.185 27.6C103.185 9.75 110.185 1 120.755 1C131.255 1 138.255 9.75 138.255 27.6C138.255 45.52 131.255 54.69 120.755 54.69ZM120.755 46.64C125.235 46.64 128.525 42.16 128.525 27.6C128.525 13.11 125.235 8.91 120.755 8.91C116.275 8.91 112.915 13.11 112.915 27.6C112.915 42.16 116.275 46.64 120.755 46.64Z" fill="#5B54E7"/>
</svg>
