<svg width="72" height="72" viewBox="0 0 72 72" fill="none" xmlns="http://www.w3.org/2000/svg">
<g clip-path="url(#clip0_352_6305)">
<path d="M49.34 66.7598V66.8197C49.46 66.8197 49.58 66.7598 49.7 66.7598C49.82 66.6998 49.94 66.6397 50.06 66.5197L50 66.4597C49.82 66.5197 49.58 66.6398 49.34 66.7598Z" fill="#2C2C2C"/>
<path d="M65.73 42.0497C65.97 40.4297 66.09 38.6197 66.09 36.0397C66.09 33.8797 65.85 31.8297 65.37 29.9097H65.31C65.55 31.8297 65.67 33.8797 65.67 36.0397V37.1797C65.67 38.7397 65.67 40.3697 65.61 42.0497H65.73Z" fill="#2C2C2C"/>
<path d="M70.39 31.4097C70.27 30.7497 70.09 30.0897 69.91 29.4297C69.67 28.2897 67.52 24.3797 67.52 24.3197C67.52 24.2597 67.46 24.1997 67.46 24.1397C67.46 24.0797 67.4 24.0197 67.4 23.9597C65.9 18.7897 63.45 14.4597 60.46 11.4497C59.26 10.2497 57.95 9.34975 56.45 8.55975C55.25 7.95975 53.82 7.41975 52.38 7.05975C52.2 6.99975 52.02 6.93975 51.78 6.93975C50.88 6.75975 49.99 6.57975 48.97 6.39975C48.67 6.21975 48.37 6.09975 48.07 5.97975C48.07 5.97975 47.89 5.97975 47.77 5.91975C47.47 5.85975 47.17 5.85975 46.87 5.79975H46.63C45.67 5.31975 44.6 4.83975 43.34 4.41975C43.16 4.35975 42.98 4.29975 42.8 4.23975C40.53 3.45975 38.13 3.09975 35.8 3.09975C34.54 3.09975 33.23 3.21975 32.03 3.45975C33.29 3.09975 34.54 2.91975 35.8 2.91975C37.59 2.91975 39.51 3.15975 41.42 3.63975C42.62 3.93975 45.91 5.19975 47.16 5.67975L47.22 5.61975C45.9 5.07975 42.55 3.75975 41.24 3.45975C39.45 3.03975 37.59 2.79975 35.8 2.79975C32.93 2.79975 30.06 3.39975 27.19 4.53975C27.07 4.53975 27.01 4.53975 26.89 4.59975C26.83 4.65975 26.77 4.65975 26.65 4.71975C26.53 4.77975 26.47 4.83975 26.35 4.89975C25.93 5.13975 25.63 5.37975 25.33 5.55975C25.21 5.67975 25.09 5.73975 24.91 5.85975C24.85 5.91975 24.79 5.97975 24.67 5.97975C24.61 6.03975 24.49 6.09975 24.43 6.15975C24.37 6.15975 24.31 6.15975 24.25 6.21975C24.19 6.21975 24.13 6.21975 24.07 6.27975C23.89 6.27975 23.71 6.33975 23.53 6.39975C22.99 6.69975 22.39 7.05975 21.86 7.41975C21.68 7.53975 21.44 7.65975 21.26 7.83975C21.14 7.89975 21.08 7.95975 20.96 7.95975C20.48 8.19975 19.52 8.73975 18.63 9.27975L18.69 9.33975C18.93 9.27975 19.17 9.15975 19.47 9.09975C19.59 9.03975 19.71 9.03975 19.77 8.97975C19.83 8.97975 19.89 8.91975 19.95 8.91975C20.01 8.85975 20.07 8.85975 20.13 8.85975C20.31 8.79975 20.49 8.73975 20.73 8.73975C20.25 8.97975 19.71 9.21975 19.23 9.45975C18.99 9.57975 18.69 9.75975 18.45 9.87975C16.48 11.0197 14.8 12.2797 13.31 13.7897C13.19 13.9097 13.01 14.0297 12.89 14.2097C12.71 14.3897 12.47 14.6297 12.29 14.8097C11.63 15.5297 11.15 16.1897 10.68 16.8497C10.74 16.7297 10.86 16.5497 10.98 16.3697L10.92 16.3097C9.96002 17.3297 8.11002 19.6797 8.11002 19.7397C7.93002 20.2797 7.45002 21.7797 7.39002 21.8997C6.61002 23.0997 5.78002 24.5497 5.06002 26.1697C4.94002 26.4697 4.82002 26.7697 4.76002 27.0697C4.94002 27.1897 4.88002 27.4297 4.76002 27.6697C3.44002 30.9797 3.32002 33.9797 3.32002 33.9797L3.50002 33.9197V33.7997C3.80002 32.2997 4.52002 30.0097 5.53002 28.1497C5.65002 27.9097 6.01002 27.2497 6.25002 26.6497C6.25002 26.6497 6.85002 25.4497 7.15002 24.7897C7.33002 24.4297 7.57002 24.0697 7.75002 23.7097C8.05002 23.1697 8.41002 22.6297 8.71002 22.0897C8.83002 21.8497 9.01002 21.6697 9.13002 21.4297C9.19002 21.3097 9.31002 21.1897 9.37002 21.0697C9.49002 20.8897 9.61002 20.7097 9.79002 20.5297L9.73002 20.4697C9.73002 20.4697 9.67002 20.5297 9.61002 20.5297C9.55002 20.5297 9.55002 20.5897 9.49002 20.6497C9.31002 20.8297 9.19002 21.0097 9.07002 21.1897C8.95002 21.3097 8.89002 21.4297 8.77002 21.5497C8.71002 21.6097 8.65002 21.7297 8.59002 21.7897C8.41002 21.9697 8.23002 22.1497 8.11002 22.3897C7.99002 22.5097 7.93002 22.6297 7.81002 22.7497C7.63002 22.9297 7.45002 23.1697 7.33002 23.3497C6.97002 23.8297 6.73002 24.1897 6.43002 24.6097C6.79002 23.9497 7.15002 23.3497 7.63002 22.6897C7.99002 22.0897 8.41002 21.5497 8.83002 20.9497C9.01002 20.7097 9.19002 20.4697 9.37002 20.2297C10.51 18.7297 11.88 17.1597 13.38 15.5997C13.68 15.2397 14.04 14.9397 14.4 14.5797C15.9 13.0797 17.57 11.8097 19.3 10.7297C19.84 10.3097 20.38 9.88975 20.91 9.46975C21.27 9.16975 21.69 8.92975 22.05 8.62975C22.23 8.50975 22.35 8.44975 22.53 8.32975C22.65 8.26975 22.77 8.20975 22.83 8.08975C23.13 7.90975 23.43 7.72975 23.73 7.54975L24.63 7.24975C24.63 7.24975 24.93 7.18975 25.11 7.18975C25.29 7.18975 25.47 7.12975 25.65 7.12975H25.83C25.83 7.12975 26.07 7.06975 26.37 7.00975C26.67 6.94975 26.97 6.94975 27.27 6.88975C30.26 6.58975 33.31 6.52975 35.88 6.52975H36.66C38.45 6.52975 41.21 6.52975 43.9 6.70975C44.68 6.76975 45.46 6.82975 46.17 6.88975H46.47L46.89 7.30975L47.13 7.36975C47.55 7.60975 47.97 7.84975 48.39 8.08975C48.21 8.02975 48.03 7.90975 47.79 7.90975L47.67 8.02975C48.15 8.44975 49.28 9.52975 49.28 9.52975C49.94 9.76975 50.78 10.1897 51.55 10.4897V10.2497C51.49 10.1897 51.37 10.0697 51.31 10.0097L51.13 9.82975C50.41 9.28975 49.63 8.74975 48.98 8.26975C48.5 7.96975 48.2 7.78975 47.78 7.48975C47.84 7.60975 50.05 8.62975 50.47 8.86975C51.85 9.82975 53.28 10.9697 54.72 12.1797C55.62 12.9597 59.21 16.5097 59.92 17.2897C61 18.4297 63.39 21.3797 63.57 21.5597L63.69 21.4397C63.39 20.7797 63.09 20.1797 62.73 19.5797C62.13 18.5597 61.47 17.5397 60.76 16.5697C60.4 16.2097 60.1 15.8497 59.74 15.4897C59.26 15.0097 58.72 14.4697 58.13 13.8697C57.41 13.1497 56.69 12.4897 55.98 11.8297C55.8 11.6497 55.56 11.4697 55.38 11.2897C55.02 10.9897 53.53 10.0297 52.33 9.48975C52.21 9.36975 52.09 9.30975 51.97 9.24975C51.85 9.18975 51.79 9.12975 51.67 9.00975C51.07 8.52975 50.47 8.10975 49.88 7.74975C50.06 7.80975 50.24 7.80975 50.36 7.80975C50.54 7.80975 50.72 7.98975 50.9 7.98975V7.80975C50.72 7.68975 50.6 7.62975 50.42 7.50975C51.08 7.68975 52.93 8.16975 53.71 8.40975C55.09 8.88975 56.34 9.54975 57.42 10.2697C58.26 10.9297 59.04 11.5297 59.75 12.2497C61.78 14.2897 63.58 16.6997 65.07 19.5197C65.55 20.5997 66.57 23.4897 66.69 23.8497C66.09 22.8297 64.36 20.5997 63.7 19.8197C63.52 19.5797 63.34 19.3997 63.1 19.1597C62.98 19.0397 62.62 18.7997 62.62 18.7997C63.16 19.5797 64.41 21.9297 64.59 22.2297C64.83 22.6497 65.67 24.3297 65.85 24.8097C66.21 25.4097 67.64 27.8797 67.64 28.2397C67.7 28.5397 67.76 28.8397 67.76 29.1997C68 31.0597 68.3 33.8897 68.24 36.2297C68.18 37.3697 68.12 40.8597 67.7 42.9597H67.76C68.6 40.7397 69.02 38.3897 69.02 36.1697C69.02 34.1297 68.84 31.0597 68.84 31.0597C68.78 30.7597 68.6 29.7397 68.42 28.8997C68.54 29.2597 68.6 29.6197 68.66 29.9197C68.78 30.5197 69.32 32.2597 69.44 34.1297C69.56 35.8097 69.38 38.2197 68.96 39.8397C68.9 40.2597 68.78 40.7397 68.66 41.2197C68.54 41.7597 68.36 42.2997 68.18 42.8397C67.76 44.0397 67.28 45.3097 66.68 46.5097C66.56 46.7497 66.44 46.9897 66.32 47.1697C66.2 47.3497 66.32 46.2097 66.32 46.2097L65.96 46.0897L65.84 46.2097C65.6 46.5697 65.36 46.9297 65.06 47.3497C65 47.4097 64.94 47.4697 64.88 47.5897C64.52 48.0697 64.34 48.3097 63.92 48.8497C64.1 48.4297 64.52 47.1697 64.58 46.8697L64.28 46.9297C64.22 47.0497 64.1 47.1697 64.04 47.2897C63.5 48.0697 62.96 49.0297 62.48 49.6897C62.48 49.6897 61.7 51.1297 61.34 51.7897C60.08 53.1097 58.83 54.3798 57.57 55.5798L57.51 55.6397C56.97 56.1797 56.49 56.6597 56.01 57.1397C53.56 59.6097 51.52 61.4097 49.43 62.8497C48.29 63.3297 45.18 64.2898 44.94 64.4098C43.68 64.8898 42.43 65.3097 41.17 65.6097C40.75 65.7297 40.27 65.7897 39.85 65.8497C39.49 65.9097 39.07 65.9697 38.71 66.0297V66.0897C39.61 66.0297 40.44 65.9697 41.28 65.8497C42 65.7897 42.72 65.6698 43.43 65.5498C44.27 65.4298 45.04 65.2497 45.82 65.0697L45.88 65.1297C46 65.0697 46.18 65.0097 46.3 64.9497C46.66 64.7697 46.96 64.6497 47.32 64.4697C47.62 64.3497 47.86 64.1697 48.16 63.9897C49.12 63.4497 50.07 62.9097 50.97 62.2497C51.09 62.1897 54.86 59.4197 56.41 57.5597C56.41 57.5597 59.28 54.7297 60.54 53.3497C60.66 53.2297 60.72 53.0497 60.84 52.9897C61.92 52.0897 64.73 48.2997 64.67 48.4797C64.61 48.8397 64.55 49.1997 64.49 49.4997C64.49 49.4997 64.49 49.6197 64.43 49.6797C64.37 49.7397 63.17 51.9597 62.93 52.2697C62.39 53.0497 61.79 53.7697 61.14 54.5497C60.78 55.1497 58.63 58.1597 56.12 60.3797L56 60.4997C55.7 60.7397 55.46 60.9197 55.16 61.0997L55.1 61.1597C54.74 61.3997 54.38 61.6397 53.96 61.8797C53 62.7197 51.99 63.4997 51.03 64.2197L50.97 64.2797H51.03C51.09 64.2797 51.45 64.1597 51.75 64.0397C51.69 64.0997 51.63 64.1598 51.57 64.1598C50.25 65.1798 46.9 67.0497 45.95 67.5297C44.75 68.1297 43.56 68.5497 42.78 68.7897C42.18 69.0297 41.58 69.2097 40.99 69.3297V69.2697C39.14 69.8097 37.28 70.0497 35.37 70.0497C33.7 70.0497 32.02 69.8097 30.41 69.2697C29.81 69.0897 29.33 68.9097 28.85 68.7297C29.93 68.8497 31.06 68.9097 32.44 69.0297V68.9697C31.72 68.8497 31.06 68.6697 30.29 68.4297C29.57 68.1897 28.79 67.9497 28.08 67.5897C30.11 67.8897 32.45 68.0697 35.38 68.0697C37.11 68.0697 38.85 67.8897 40.52 67.6497C41.54 67.4697 42.55 67.2297 43.57 66.9297C43.81 66.8697 44.41 66.6298 44.95 66.5098C44.53 66.7498 42.68 67.7097 41.96 67.9497C41.12 68.2497 40.34 68.5497 39.51 68.7297L39.57 68.8497C41.01 68.6097 42.2 68.3097 43.4 67.9497C43.7 67.9497 44.6 67.7697 44.9 67.7097C45.08 67.7097 46.22 67.0497 46.87 66.6297C46.93 66.5697 47.05 66.5097 47.11 66.4497C47.23 66.3897 47.29 66.3297 47.41 66.2697C48.01 65.8497 48.67 65.3697 49.26 64.8897C49.32 64.8297 49.44 64.7697 49.5 64.7097C49.92 64.3497 50.4 63.9897 50.82 63.6297C51 63.4497 51.24 63.2697 51.42 63.0897C51.48 63.0297 51.54 62.9697 51.6 62.9097C52.02 62.6697 52.44 62.4897 52.86 62.2497C54.36 61.1697 55.85 59.9097 57.29 58.4597C58.61 57.1397 59.8 55.7497 61.06 54.1897C61.24 54.0097 61.48 53.7097 61.48 53.4097C61.48 53.4097 58.19 56.8997 56.99 58.1597C55.55 59.5997 54.12 60.8697 52.56 62.0097C51.96 62.4297 51.36 62.8497 50.77 63.2697L50.71 63.3298C50.05 63.7498 49.39 64.1697 48.74 64.5297C48.44 64.7097 48.08 64.8897 47.78 65.0697C47.66 65.1297 47.54 65.1897 47.42 65.2497C47.24 65.2497 45.63 65.4897 44.97 65.6097C43.95 66.0897 42.94 66.5097 41.92 66.8097V66.8697H42.34C42.76 66.8697 43.12 66.8097 43.54 66.8097C43.42 66.8697 43.3 66.8697 43.18 66.9297C42.4 66.9897 41.62 67.0497 40.85 67.1097C39 67.5897 37.14 67.7697 35.41 67.7697C32.48 67.7697 30.98 67.5897 26.44 66.8697C26.08 66.6897 25.72 66.4497 25.3 66.2097C25.72 66.2097 26.5 66.2697 27.63 66.2697H30.02V66.2097C29.36 66.1497 28.7 66.1497 28.11 66.0897C27.45 66.0897 26.79 66.0297 26.08 65.9697H25.84C25.48 65.9697 25 65.9097 24.64 65.8497H24.58C23.98 65.6697 23.32 65.4897 22.73 65.2497C22.67 65.1897 22.55 65.1297 22.49 65.0697C23.03 65.2497 23.57 65.4297 24.1 65.6097L24.16 65.5498C23.92 65.3698 22.13 64.1697 21.53 63.6897C21.53 63.6897 20.27 63.0897 19.68 62.7897C19.02 62.2497 18.36 61.5897 17.65 60.9297C16.51 59.8497 14.36 57.6197 14.3 57.6197C12.15 55.4597 10.59 53.4697 9.16002 51.6697C8.44002 50.7697 6.53002 47.6397 6.29002 47.2797V47.2197C6.23002 46.9797 6.17002 46.7397 6.11002 46.4997C6.05002 46.3797 5.99002 46.2597 5.93002 46.1397L5.87002 46.0197C5.33002 44.7597 4.91002 43.4897 4.55002 42.2297H4.49002V42.2897C4.55002 43.0697 4.61002 43.7897 4.73002 44.4497C4.67002 44.2697 4.55002 44.0897 4.49002 43.9097C4.25002 43.3697 4.01002 42.8297 3.83002 42.2897C3.59002 41.6297 3.41002 41.0297 3.23002 40.3697H3.17002C3.35002 41.4497 3.59002 42.5297 3.95002 43.5597C4.25002 44.5797 4.67002 45.6597 5.15002 46.6897L5.21002 46.8097C5.45002 47.3497 5.75002 47.8897 6.05002 48.4897C6.17002 48.6697 6.23002 48.8497 6.35002 49.0297C6.41002 49.1497 6.47002 49.2697 6.53002 49.3897C6.65002 49.6297 6.83002 49.8697 7.01002 50.1697C7.07002 50.2897 7.19002 50.4097 7.25002 50.5297C7.43002 50.8297 7.67002 51.1297 7.85002 51.4297C8.03002 51.7297 8.27002 52.0298 8.51002 52.3298C9.77002 53.7098 11.08 55.0997 12.58 56.5397L12.94 56.8997C13.3 57.2597 13.66 57.6197 14.02 57.9197C15.22 59.1197 16.65 60.5697 18.15 61.8897C19.17 62.8497 20.18 63.6898 21.14 64.4798L21.26 64.5997C21.38 64.7197 21.62 64.8997 21.74 65.0197C21.44 64.8997 21.14 64.8397 20.84 64.7197C20.72 64.6597 20.6 64.6597 20.48 64.5997C20.12 64.5397 19.76 64.4797 19.4 64.3597C19.28 64.3597 19.22 64.2998 19.1 64.2998C16.41 63.0398 14.14 61.4097 12.34 59.6097C11.44 58.7097 10.67 57.6897 9.95002 56.4797C9.59002 55.8797 9.23002 55.2797 8.93002 54.6797C8.93002 54.6797 8.87002 54.6197 8.81002 54.5597C8.75002 54.4397 8.69002 54.3197 8.63002 54.1397C8.21002 53.2397 7.79002 52.2797 7.43002 51.2497L7.37002 51.1897C7.13002 50.8297 6.83002 50.4697 6.59002 50.1097C6.53002 50.0497 6.53002 49.9897 6.47002 49.9297C6.35002 49.8097 6.29002 49.6297 6.17002 49.5097C5.99002 49.2697 5.81002 48.9697 5.69002 48.7297C5.33002 48.1897 5.03002 47.5897 4.73002 47.0497C4.67002 46.6897 4.55002 46.3297 4.49002 45.9697C4.43002 45.7297 4.37002 45.4897 4.37002 45.2497C4.13002 44.8897 3.95002 44.5297 3.77002 44.1697C3.65002 43.9297 2.57002 41.2797 2.51002 41.0397V40.9197C2.51002 40.7997 2.45002 40.6797 2.45002 40.5597C2.45002 39.8997 2.39002 39.2997 2.33002 38.7597C2.63002 37.6197 2.57002 36.8997 2.57002 36.1097C2.57002 35.1497 2.57002 34.1297 2.69002 33.0397C2.75002 32.0797 2.87002 31.1797 3.05002 30.2097H2.99002C2.69002 31.2297 2.45002 32.2497 2.33002 33.2797C2.21002 34.2397 2.15002 35.1997 2.15002 36.1697C2.15002 34.6697 2.27002 33.0397 2.57002 31.1797C2.63002 31.0597 2.63002 30.9397 2.63002 30.8797C2.69002 30.6997 2.69002 30.5797 2.75002 30.3997C2.75002 30.3397 2.75002 30.2797 2.81002 30.2197C2.93002 29.9197 2.99002 29.6797 3.11002 29.3797C3.23002 28.7797 3.35002 28.2397 3.47002 27.6397C3.89002 26.4397 4.31002 25.1797 4.85002 23.9697L4.79002 23.9097C4.55002 24.2697 4.37002 24.5697 4.19002 24.9297C4.13002 24.9897 4.13002 25.0497 4.07002 25.1697C4.01002 25.2297 4.01002 25.2897 3.95002 25.3497C4.37002 24.2097 4.73002 23.2497 5.15002 22.3397C6.47002 19.1497 8.20002 16.2697 10.11 13.8597L10.05 13.7997C9.03002 14.9997 8.08002 16.2597 7.18002 17.6497C5.21002 20.6597 3.59002 23.9597 2.57002 27.2697C2.27002 28.1697 2.03002 29.1297 1.85002 30.0397C1.37002 32.3197 1.07002 34.3097 1.07002 36.1097C1.07002 37.7297 1.31002 39.3597 1.85002 41.0397C2.15002 42.0597 2.51002 42.8997 2.87002 43.6297C2.99002 44.5297 3.53002 46.8797 3.83002 47.8397C5.39002 53.2497 7.96002 57.9397 11.13 61.1297C11.91 61.9097 12.74 62.5697 13.64 63.1697C14.36 63.6497 15.08 64.0097 15.91 64.4297C16.33 64.7297 16.75 65.0297 17.17 65.2697C19.08 66.1697 21.18 66.9497 23.45 67.5497V67.4897C21.6 66.8897 19.86 66.1097 18.25 65.2697C17.83 65.0297 17.41 64.7897 16.99 64.6097C17.53 64.7897 18.07 64.9697 18.6 65.0897C18.78 65.1497 18.96 65.2097 19.2 65.2097C19.98 65.5697 20.76 65.8698 21.53 66.2298C22.07 66.4098 23.8 66.7097 24.16 66.7097H24.22C24.46 66.7697 24.7 66.8297 25 66.8897C25.12 66.9497 26.14 67.5497 26.56 67.7897C27.16 68.0897 27.64 68.3297 28.18 68.5697C28.72 68.8097 29.26 68.9897 29.79 69.1697L29.97 69.2297C31.11 69.5897 32.24 69.8897 33.38 70.0697C31.35 69.8897 29.19 69.3497 27.16 68.7497V68.9297C28.3 69.5297 29.43 69.9497 30.57 70.3097C32.3 70.8497 34.1 71.1497 35.83 71.1497C37.98 71.1497 40.2 70.7897 42.47 70.0697C44.5 69.4097 46.6 68.5097 48.69 67.2997C48.81 67.2397 48.93 67.1797 49.05 67.1197C49.89 66.6397 50.72 66.0398 51.62 65.4398L51.74 65.3197C52.64 64.6597 53.59 63.9997 54.37 63.3997C54.67 63.1597 54.91 62.9197 55.21 62.7397C56.41 61.7197 57.66 60.5797 58.86 59.3697C59.58 58.6497 62.09 55.8797 62.69 55.2197C64.6 52.8197 65.74 50.9497 66.34 49.7497C66.7 48.9697 67.54 46.7397 67.6 46.5597C68.5 45.5997 70.17 41.3897 70.47 40.2497C70.77 38.9897 70.89 37.5997 70.89 36.3397C70.83 34.5997 70.71 33.0297 70.41 31.4097H70.39ZM39.29 5.36975L39.35 5.42975C39.95 5.48975 40.55 5.54975 41.14 5.60975C41.32 5.66975 39.88 5.72975 38.75 5.72975H35.94C33.61 5.72975 31.45 5.84975 29.42 6.14975C30.5 5.90975 31.81 5.60975 32.53 5.48975V5.42975H31.69C30.61 5.42975 29.54 5.48975 28.46 5.54975C28.28 5.54975 28.04 5.60975 27.86 5.60975C27.74 5.60975 27.56 5.66975 27.44 5.66975H27.14C27.2 5.66975 27.26 5.60975 27.32 5.60975C27.44 5.54975 27.56 5.48975 27.68 5.48975C27.74 5.48975 27.8 5.42975 27.86 5.42975C27.98 5.36975 28.1 5.30975 28.22 5.24975C29.66 4.70975 30.91 4.34975 32.11 4.10975C33.37 3.86975 34.68 3.74975 35.94 3.74975C38.45 3.74975 40.96 4.16975 43.42 5.00975C43.9 5.18975 44.32 5.30975 44.68 5.48975C44.5 5.48975 44.32 5.48975 44.08 5.42975H43.84C42.76 5.36975 41.63 5.36975 40.25 5.30975C40.01 5.36975 39.59 5.36975 39.29 5.36975ZM15.9 63.1497C15.3 62.8497 14.7 62.4897 14.11 62.1297C13.27 61.5297 12.5 60.8697 11.78 60.2097C10.11 58.5297 8.67002 56.4197 7.47002 53.8397C7.59002 54.0197 7.77002 54.2597 7.89002 54.4397L7.95002 54.3797C8.07002 54.6197 8.19002 54.7997 8.31002 54.9797C8.43002 55.0997 8.49002 55.2197 8.61002 55.3397C8.67002 55.4597 8.79002 55.5197 8.85002 55.6397C9.93002 56.9597 11.12 58.2897 12.38 59.5497C13.94 61.1097 15.79 62.4997 17.76 63.6397C18.18 63.8797 18.6 64.1197 19.08 64.3597C18.42 64.1797 17.76 63.9397 17.17 63.6997C16.87 63.5797 16.57 63.4597 16.27 63.3397C16.21 63.2797 16.09 63.2197 15.91 63.1597L15.9 63.1497ZM5.43002 50.5197C4.89002 49.3197 4.05002 46.4297 3.76002 45.2897V45.3497C4.00002 45.7097 4.18002 46.0697 4.42002 46.4297C4.54002 46.6697 4.72002 46.8497 4.84002 47.0897C4.96002 47.2697 5.08002 47.4497 5.20002 47.6297C5.44002 47.9897 5.74002 48.4097 6.04002 48.7697C6.10002 48.8297 6.16002 48.9497 6.22002 49.0097C6.28002 49.1297 6.34002 49.1897 6.46002 49.3097C6.52002 49.7297 6.58002 50.1497 6.64002 50.5097C6.64002 50.6297 6.70002 50.7497 6.70002 50.9297V51.0497C6.94002 51.7697 7.42002 53.2697 7.96002 54.2997C7.60002 53.6997 7.30002 53.0397 7.06002 52.5597H7.00002C7.00002 52.7397 7.30002 53.9397 7.42002 54.2997C7.48002 54.5397 7.60002 54.7797 7.66002 55.0197C6.88002 53.6397 6.16002 52.0697 5.45002 50.5097L5.43002 50.5197Z" fill="#2C2C2C"/>
<path d="M35.88 1.27975C33.13 1.27975 30.26 1.81975 27.33 2.89975C30.26 2.11975 33.19 1.69975 35.88 1.69975C37.44 1.69975 39.05 1.81975 40.72 2.11975C39.1 1.57975 37.49 1.27975 35.88 1.27975ZM35.88 1.69975C33.25 1.69975 30.44 2.11975 27.51 2.83975C30.32 1.81975 33.13 1.27975 35.88 1.27975C37.49 1.27975 39.05 1.57975 40.61 2.05975C38.94 1.81975 37.38 1.69975 35.88 1.69975Z" fill="#4B4B4B"/>
<path d="M40.97 4.58975C39.3 4.40975 37.62 4.28975 35.89 4.28975C34.33 4.28975 32.78 4.40975 31.22 4.58975C30.68 4.76975 29.43 5.12975 29.37 5.24975C29.37 5.24975 33.56 5.00975 35.89 5.00975C37.39 5.00975 38.88 5.12975 40.26 5.42975C41.58 5.42975 42.77 5.48975 43.79 5.54975C42.89 5.18975 41.94 4.82975 40.98 4.58975H40.97Z" fill="#484848"/>
<path d="M62.86 52.1497C62.86 52.2097 62.8 52.2697 62.8 52.2697C63.34 51.6097 63.88 51.0097 64.42 50.3497C64 50.8297 63.58 51.3097 63.16 51.7297C63.04 51.9097 62.92 52.0297 62.86 52.1497Z" fill="#DBDBDB"/>
<path d="M40.13 6.81975H35.88C32.47 6.81975 29.42 7.11975 26.67 7.77975C27.93 7.71975 29.18 7.71975 30.44 7.71975C31.34 7.71975 35.05 7.77975 35.94 7.77975C40.31 7.77975 44.61 7.95975 48.56 9.09975C47.66 8.49975 46.71 7.95975 45.75 7.47975C43.9 7.05975 42.04 6.93975 40.13 6.81975Z" fill="#DBDBDB"/>
<path d="M64.77 46.6197C64.95 46.3197 65.13 46.0197 65.31 45.7197C65.37 45.5397 65.49 45.3597 65.55 45.1797C65.61 44.1597 65.67 43.1397 65.67 42.1097C65.49 43.6697 65.19 45.1797 64.77 46.6197Z" fill="#DBDBDB"/>
<path d="M64.35 24.6697C63.93 23.8897 63.45 23.0497 62.91 22.2697C63.63 23.8297 64.17 25.5797 64.58 27.3197C64.88 28.1597 65.12 28.9997 65.36 29.8997C65.12 28.0397 64.82 26.2897 64.34 24.6697H64.35Z" fill="#DBDBDB"/>
<path d="M35.88 64.3497C29.06 64.3497 21.82 63.4497 15.18 56.8297C12.55 54.1797 9.92002 51.4197 7.82002 48.4697C8.36002 49.4297 8.96002 50.3897 9.67002 51.3597C10.99 52.7997 12.36 54.1897 13.74 55.5097C14.22 55.9897 14.7 56.4697 15.18 56.9497C16.91 58.6897 18.71 60.4997 20.74 62.2397C23.55 63.7397 26.36 64.5197 29.17 64.9497H35.87C38.86 64.9497 41.55 64.7697 44 64.3497C42.33 64.4697 40.59 64.4697 38.8 64.4697C38.26 64.3497 36.35 64.3497 35.87 64.3497H35.88Z" fill="#DBDBDB"/>
<path d="M2.98002 30.1997C3.16002 29.4797 3.40002 28.7597 3.70002 28.0397C3.52002 28.3997 3.34002 28.8197 3.16002 29.2397C3.10002 29.5397 3.04002 29.8397 2.98002 30.1997Z" fill="#DBDBDB"/>
<path d="M20.21 8.13975C19.97 8.19975 19.67 8.31975 19.43 8.37975C18.95 8.73975 18.41 9.09975 17.93 9.51975C18.17 9.39975 18.47 9.33975 18.71 9.21975C19.25 8.85975 19.73 8.49975 20.21 8.13975Z" fill="#DBDBDB"/>
<path d="M12.73 12.8297C13.51 12.0497 14.46 11.0897 15.6 10.1797C14.46 10.8397 13.45 11.6797 12.49 12.5797C9.32002 15.8297 6.75002 19.7297 4.89002 23.8197C5.61002 22.6797 6.39002 21.5997 7.22002 20.5097C8.24002 18.6497 9.37002 16.8397 10.69 15.2197C11.35 14.3797 12.01 13.5997 12.72 12.8197L12.73 12.8297Z" fill="#DBDBDB"/>
<path d="M57.29 60.9797C57.89 60.4997 58.49 59.9597 59.08 59.4197C59.86 58.6397 60.58 57.7997 61.23 56.8997C60.51 57.7397 59.79 58.5797 59.02 59.3597C58.42 59.8997 57.82 60.4397 57.29 60.9797Z" fill="#DBDBDB"/>
<path d="M4.72002 44.9297C5.02002 45.4097 5.32002 45.8897 5.62002 46.3697C5.14002 45.3497 4.78002 44.3297 4.42002 43.2397C4.54002 43.8397 4.66002 44.3797 4.72002 44.9197V44.9297Z" fill="#DBDBDB"/>
<path d="M22.78 8.91975C21.94 9.21975 21.17 9.57975 20.45 9.93975C18.78 11.4397 17.22 13.0097 15.61 14.6297L15.07 15.1697C13.04 17.2097 11.06 19.3797 9.39002 21.8397C9.21002 22.2597 9.09002 22.6197 8.91002 23.0397C10.82 20.6997 13.04 18.4697 15.25 16.2497L15.67 15.8297C16.15 15.3497 16.69 14.8097 17.17 14.3297C19.08 12.4697 20.88 10.5997 22.79 8.91975H22.78Z" fill="#7B7B7B"/>
<path d="M45.81 3.86975C47.54 4.58975 49.28 5.42975 51.01 6.44975C52.45 6.74975 53.88 7.16975 55.2 7.70975C53.94 6.92975 52.63 6.20975 51.31 5.54975C49.46 4.82975 47.6 4.28975 45.81 3.86975Z" fill="#787878"/>
<path d="M26.97 4.52975C27.15 4.40975 27.27 4.34975 27.45 4.22975C27.15 4.34975 26.91 4.46975 26.61 4.52975C26.73 4.58975 26.85 4.58975 26.97 4.52975Z" fill="#787878"/>
<path d="M22.9 6.45975C23.2 6.39975 23.5 6.33975 23.8 6.27975C23.98 6.15975 24.1 6.09975 24.28 5.97975C23.98 6.03975 23.68 6.09975 23.38 6.15975C23.2 6.27975 23.02 6.33975 22.9 6.45975Z" fill="#787878"/>
<path d="M17.94 9.81975C18.3 9.57975 18.72 9.27975 19.08 9.03975C18.96 9.09975 18.9 9.09975 18.78 9.15975C18.48 9.39975 18.18 9.63975 17.94 9.81975Z" fill="#787878"/>
<path d="M6.15002 36.0997V36.3997C6.15002 39.1097 6.15002 41.8097 6.33002 44.4597C6.33002 44.5797 6.39002 44.6997 6.39002 44.8197C6.45002 43.1997 6.57002 41.5697 6.57002 40.0097V36.0997C6.57002 33.9997 6.51002 31.9497 6.63002 29.9697C6.57002 30.2697 6.51002 30.5697 6.39002 30.8097C6.27002 32.4297 6.15002 34.1797 6.15002 36.0997Z" fill="#787878"/>
<path d="M10.16 20.2197C10.22 20.1597 10.22 20.0997 10.28 20.0397C10.1 20.2197 9.98002 20.4597 9.80002 20.6397C9.86002 20.4597 10.04 20.3397 10.16 20.2197Z" fill="#787878"/>
<path d="M7.47002 47.8797C7.53002 48.0597 7.65002 48.1797 7.71002 48.3597C7.53002 47.2797 7.41002 46.2597 7.35002 45.1097C7.41002 46.0697 7.35002 46.9697 7.47002 47.8797Z" fill="#787878"/>
<path d="M7.89002 26.3597C7.83002 26.8997 7.77002 27.3797 7.71002 27.9197C7.83002 27.1997 7.95002 26.5397 8.13002 25.8797C8.07002 26.0597 8.01002 26.1797 7.89002 26.3597Z" fill="#787878"/>
<path d="M69.44 33.3297C69.5 34.2297 69.56 35.1297 69.56 36.0397C69.56 37.1797 69.44 38.2597 69.2 39.3497C69.14 39.7097 69.14 40.0697 69.08 40.4897C69.14 40.1897 69.26 39.8897 69.32 39.5897C69.56 38.3897 69.62 37.1897 69.62 36.0397C69.62 35.1397 69.56 34.2397 69.44 33.3297Z" fill="#787878"/>
<path d="M66.45 45.9497C66.51 45.8897 66.51 45.8297 66.57 45.7697C66.63 45.5297 66.75 45.2897 66.81 45.0497C66.69 45.2297 66.57 45.4097 66.45 45.6497C66.51 45.7097 66.45 45.8297 66.45 45.9497Z" fill="#787878"/>
<path d="M51.55 61.8297C51.61 61.7697 51.67 61.7097 51.73 61.7097C51.61 61.7697 51.55 61.8297 51.43 61.9597C51.49 61.8997 51.49 61.8397 51.55 61.8397V61.8297Z" fill="#787878"/>
<path d="M28.4 67.3597C28.76 67.4197 29.12 67.4798 29.48 67.4798C29.06 67.4198 28.7 67.3598 28.28 67.2998C28.32 67.2998 28.36 67.3197 28.4 67.3597Z" fill="#787878"/>
<path d="M9.20002 54.3097C9.20002 54.3697 9.26002 54.4297 9.26002 54.4897C9.38002 54.6097 9.50002 54.7297 9.56002 54.9097C9.50002 54.8497 9.50002 54.7897 9.50002 54.7297C9.38002 54.5497 9.32002 54.4297 9.20002 54.3097Z" fill="#787878"/>
<path d="M15.25 62.6097C15.25 62.6097 15.31 62.6097 15.31 62.6697C15.25 62.6097 15.13 62.5497 15.07 62.4797C15.13 62.4797 15.19 62.5397 15.25 62.5997V62.6097Z" fill="#787878"/>
<path d="M7.77002 50.6497V50.7697C7.77002 50.8297 7.83002 50.8897 7.83002 50.9497C8.07002 51.2497 8.25002 51.5497 8.49002 51.8497C8.43002 51.6697 8.37002 51.4897 8.37002 51.3097C8.13002 51.1297 7.95002 50.8897 7.77002 50.6497Z" fill="#787878"/>
<path d="M6.87002 51.1297C6.87002 51.0897 6.85002 51.0497 6.81002 51.0097L6.87002 51.3097L6.99002 51.4297C6.93002 51.3697 6.87002 51.2497 6.87002 51.1297Z" fill="#2D2D2D"/>
<path d="M47.13 7.11975H47.01C47.25 7.35975 47.55 7.59975 47.79 7.83975C48.09 7.89975 48.39 8.01975 48.69 8.07975C48.15 7.71975 47.67 7.41975 47.13 7.11975Z" fill="#2D2D2D"/>
<path d="M22.12 5.42975C21.1 6.02975 20.15 6.62975 19.19 7.34975C20.27 6.98975 21.34 6.68975 22.48 6.32975C23.5 5.72975 24.45 5.18975 25.47 4.70975C24.33 4.94975 23.2 5.12975 22.12 5.42975Z" fill="#2D2D2D"/>
<path d="M56.46 15.4097C55.44 14.3897 54.49 13.3697 53.47 12.2197C52.81 11.5597 52.21 10.8397 51.56 10.1197C50.84 9.81975 50.12 9.51975 49.35 9.27975C49.71 9.63975 50.13 10.0597 50.49 10.4197C52.4 11.9197 54.32 13.6697 56.23 15.5897C57.19 16.5497 58.14 17.4497 59.16 18.4797C59.4 18.7197 59.7 18.9597 59.94 19.1997C58.86 17.8797 57.67 16.6097 56.47 15.4097H56.46Z" fill="#2D2D2D"/>
<path d="M27.51 64.8897C26.31 64.8897 25.24 64.8297 24.04 64.7097C24.28 64.8897 24.4 65.0097 24.64 65.1897C25.24 65.3697 25.84 65.4897 26.43 65.6697C27.75 65.7897 29.12 65.8497 30.5 65.8497H35.82C36.96 65.8497 38.03 65.8497 39.11 65.7897C39.47 65.7297 39.89 65.6697 40.25 65.6097C38.81 65.6697 37.32 65.6697 35.82 65.6697C32.83 65.6097 30.08 65.3697 27.51 64.8897Z" fill="#2D2D2D"/>
<path d="M8.01002 54.4297C8.37002 55.0297 8.73002 55.6297 9.15002 56.2297C8.91002 55.8097 8.67002 55.3897 8.43002 54.9697C8.31002 54.7897 8.19002 54.6097 8.01002 54.4297Z" fill="#6E6E6E"/>
<path d="M7.71002 50.6397C7.71002 50.6997 7.77002 50.7597 7.77002 50.8297C7.77002 50.7697 7.77002 50.7097 7.71002 50.6397Z" fill="#6E6E6E"/>
<path d="M15.25 62.6097C15.61 62.9097 15.97 63.1497 16.33 63.4497C16.63 63.5697 16.93 63.6897 17.23 63.8097C16.57 63.4497 15.91 63.0897 15.32 62.6697C15.32 62.6097 15.26 62.6097 15.26 62.6097H15.25Z" fill="#6E6E6E"/>
<path d="M10.76 15.2297C10.04 16.2497 9.44002 17.3297 8.97002 18.4797C10.11 17.1597 11.3 15.8897 12.44 14.6897C12.74 14.3297 13.1 13.9097 13.46 13.5497C14.66 12.3497 16.15 10.9597 18.01 9.51975C16.16 10.2997 14.42 11.3797 12.87 12.9497C12.15 13.6697 11.43 14.4497 10.78 15.2297H10.76Z" fill="#6E6E6E"/>
<path d="M64.59 27.3197C63.45 24.1897 61.84 21.5497 59.93 19.1997C59.69 18.9597 59.39 18.7197 59.15 18.4797C58.13 17.5197 57.12 16.5597 56.22 15.5897C54.31 13.6697 52.39 11.8597 50.48 10.4197C51.26 11.1997 52.04 12.0397 52.75 12.8797C53.77 14.0197 54.78 15.0397 55.8 16.0697C60.64 20.9397 65.13 26.7697 65.13 36.0897C65.13 41.1997 64.41 45.5897 62.86 49.3797C63.46 48.5997 64.06 47.8197 64.59 47.0397C65.43 43.3097 65.61 39.5297 65.61 36.0997C65.55 32.9097 65.25 30.0297 64.59 27.3197Z" fill="#6E6E6E"/>
<path d="M7.71002 24.6697C7.59002 24.8497 7.47002 24.9697 7.35002 25.1497C7.23002 25.3297 7.11002 25.4497 7.05002 25.6297C7.05002 25.8097 6.99002 26.0497 6.99002 26.2297C7.11002 25.9897 7.17002 25.8097 7.29002 25.5697C7.41002 25.2097 7.53002 24.9097 7.71002 24.6697Z" fill="#6E6E6E"/>
<path d="M6.51002 36.0997C6.51002 37.3597 6.51002 38.6797 6.45002 39.9497C6.39002 41.5697 6.39002 43.1397 6.39002 44.7597C6.45002 45.2397 6.51002 45.7197 6.63002 46.1997C6.87002 46.7397 7.17002 47.3397 7.47002 47.8797C7.41002 46.9797 7.41002 46.0797 7.35002 45.1097C7.35002 43.4297 7.35002 41.6797 7.41002 39.9397C7.41002 38.6797 7.47002 37.3497 7.47002 36.0297C7.47002 33.1997 7.53002 30.4997 7.77002 27.9097C7.83002 27.3697 7.89002 26.8897 7.95002 26.3497C7.41002 27.4897 6.99002 28.6297 6.69002 29.8997C6.51002 31.8797 6.51002 33.9297 6.51002 36.0897V36.0997Z" fill="#6E6E6E"/>
<path d="M45.45 64.1097C45.75 63.9897 45.99 63.8697 46.29 63.7497C45.57 63.9297 44.79 64.1097 43.96 64.2297C44.5 64.2297 44.98 64.1697 45.46 64.1097H45.45Z" fill="#6E6E6E"/>
<path d="M25.17 65.5498C25.59 65.6098 26.07 65.6097 26.49 65.6697C25.89 65.5497 25.29 65.3698 24.7 65.1898C24.82 65.3698 25 65.4298 25.18 65.5498H25.17Z" fill="#6E6E6E"/>
<path d="M37.32 65.3698H35.88C33.67 65.3698 31.39 65.2497 29.12 64.9497H27.5C30.07 65.4297 32.82 65.6697 35.87 65.6697C37.37 65.6697 38.86 65.6697 40.3 65.6097C40.78 65.5497 41.2 65.4298 41.62 65.3698C40.66 65.3698 39.71 65.4297 38.75 65.4297C38.27 65.3697 37.79 65.3698 37.31 65.3698H37.32Z" fill="#6E6E6E"/>
<path d="M48.62 63.6897H48.74C49.4 63.3297 50.12 62.9697 50.77 62.5497C51.01 62.3097 51.31 62.1297 51.55 61.8897C51.49 61.8897 51.49 61.9497 51.43 61.9497C50.47 62.5497 49.58 63.1497 48.62 63.6897Z" fill="#6E6E6E"/>
<path d="M45.75 4.88975C45.63 4.82975 45.51 4.76975 45.39 4.70975C45.33 4.70975 45.27 4.64975 45.15 4.64975C45.21 4.64975 45.27 4.70975 45.33 4.70975C45.51 4.76975 45.63 4.82975 45.75 4.88975Z" fill="#6E6E6E"/>
<path d="M19.01 7.53975C20.03 7.23975 21.1 6.93975 22.12 6.63975C22.24 6.57975 22.36 6.45975 22.48 6.39975C21.28 6.69975 20.21 6.99975 19.19 7.41975C19.13 7.41975 19.07 7.47975 19.01 7.53975Z" fill="#6E6E6E"/>
<path d="M35.88 1.70975C33.13 1.70975 30.2 2.12975 27.33 2.90975C25.48 3.62975 23.74 4.46975 22.13 5.42975C23.21 5.18975 24.34 4.94975 25.48 4.76975C26.74 4.16975 27.99 3.68975 29.37 3.26975C31.4 2.36975 33.56 1.82975 35.83 1.82975C37.74 1.82975 39.72 2.06975 41.69 2.54975C41.33 2.36975 40.97 2.24975 40.61 2.12975C39.05 1.88975 37.44 1.70975 35.88 1.70975Z" fill="#6E6E6E"/>
<path d="M35.88 1.27975C32.89 1.27975 30.02 1.93975 27.33 2.89975C30.2 2.11975 33.13 1.69975 35.88 1.69975C37.44 1.69975 39.05 1.81975 40.72 2.11975C39.16 1.57975 37.55 1.27975 35.88 1.27975Z" fill="#4B4B4B"/>
<path d="M10.16 20.2197C10.04 20.3397 9.92002 20.5197 9.80002 20.6397C9.62002 20.9397 9.38002 21.1797 9.20002 21.4797C9.08002 21.7197 8.90002 21.8997 8.78002 22.1397C8.42002 22.6797 8.12002 23.2197 7.82002 23.7597C7.64002 24.1197 7.40002 24.4797 7.22002 24.8397C7.16002 25.0797 7.16002 25.3197 7.10002 25.6197C7.22002 25.4397 7.34002 25.3197 7.40002 25.1397C7.52002 24.9597 7.64002 24.8397 7.76002 24.6597C8.00002 24.2397 8.24002 23.8197 8.48002 23.3997C8.78002 22.8597 9.14002 22.3797 9.50002 21.8397C9.62002 21.2997 9.86002 20.7597 10.16 20.2197Z" fill="#626262"/>
<path d="M66.56 45.7797C66.5 45.8397 66.5 45.8997 66.44 45.9597V46.1397C66.38 46.6197 66.32 47.1597 66.26 47.6397C66.38 47.3997 66.56 47.2197 66.68 46.9797C66.8 46.7397 66.92 46.4997 67.04 46.2597C67.22 45.5397 67.4 44.8197 67.52 44.1597C67.58 43.9797 67.58 43.7997 67.64 43.6197C67.4 44.0997 67.1 44.5797 66.8 45.0597C66.74 45.2997 66.68 45.5397 66.56 45.7797Z" fill="#626262"/>
<path d="M15.07 62.4897C13.99 61.7097 12.98 60.9297 12.08 60.0197C11.12 59.0597 10.23 57.9797 9.45002 56.7697C10.17 57.9697 11.01 59.1097 12.02 60.1397C12.74 60.8597 13.52 61.5197 14.35 62.1797C13.45 61.6397 12.68 61.0397 11.9 60.2597C10.88 59.2397 10.11 58.0997 9.45002 56.7697C9.33002 56.5897 9.27002 56.4697 9.15002 56.2897C8.73002 55.6897 8.37002 55.0897 8.01002 54.4897C7.77002 54.1897 7.53002 53.8297 7.29002 53.5297C8.49002 56.2397 10.04 58.5197 11.78 60.3197C12.5 61.0397 13.28 61.6397 14.11 62.2997C14.71 62.6597 15.25 63.0197 15.9 63.3197C16.02 63.3797 16.2 63.4397 16.32 63.4997C15.96 63.2597 15.6 62.9597 15.24 62.6597C15.18 62.5397 15.12 62.4797 15.06 62.4797L15.07 62.4897Z" fill="#626262"/>
<path d="M65.73 36.0897C65.73 33.9297 65.61 31.8797 65.37 29.9597C65.13 29.0597 64.89 28.2197 64.59 27.3697C65.19 30.0797 65.55 32.9597 65.55 36.0897C65.55 39.4597 65.37 43.2397 64.53 47.0297C64.59 46.9097 64.71 46.7897 64.77 46.6697C65.19 45.2297 65.49 43.7197 65.67 42.0997C65.73 40.4197 65.73 38.7897 65.73 37.2297V36.0897Z" fill="#626262"/>
<path d="M35.88 64.8297H29.18C31.45 65.1897 33.73 65.2497 35.94 65.2497H38.81C39.77 65.2497 40.72 65.2497 41.68 65.1897C43 64.8897 44.25 64.5297 45.51 63.9897C45.03 64.0497 44.55 64.0497 44.01 64.1097C41.56 64.6497 38.87 64.8297 35.88 64.8297Z" fill="#626262"/>
<path d="M47.78 64.1097C48.08 63.9297 48.44 63.8097 48.74 63.6297H48.62C48.38 63.8097 48.08 63.9897 47.78 64.1097Z" fill="#626262"/>
<path d="M35.88 5.84975H38.69C39.77 5.84975 40.84 5.84975 41.92 5.90975C41.62 5.84975 41.32 5.72975 41.08 5.66975C40.48 5.60975 39.88 5.54975 39.29 5.48975H35.88C34.74 5.48975 33.67 5.48975 32.53 5.54975C30.44 5.78975 28.4 6.20975 26.43 6.80975C26.37 6.80975 26.37 6.86975 26.31 6.86975C26.25 6.86975 26.25 6.92975 26.19 6.92975C26.31 6.92975 26.43 6.86975 26.55 6.86975C29.3 6.14975 32.41 5.84975 35.88 5.84975Z" fill="#626262"/>
<path d="M52.33 7.05975C53.77 7.41975 55.08 7.89975 56.34 8.49975C55.98 8.19975 55.56 7.95975 55.14 7.71975C53.82 7.17975 52.45 6.75975 50.95 6.45975C49.28 5.43975 47.48 4.59975 45.75 3.87975C44.97 3.69975 44.14 3.51975 43.36 3.39975C42.82 3.09975 42.28 2.79975 41.75 2.55975C39.78 2.07975 37.8 1.77975 35.89 1.77975C33.56 1.77975 31.46 2.37975 29.43 3.27975C31.52 2.67975 33.68 2.25975 35.89 2.25975C37.33 2.25975 38.7 2.49975 40.02 2.91975C38.58 2.79975 37.21 2.73975 35.89 2.73975C33.08 2.73975 30.27 3.27975 27.46 4.29975C27.28 4.35975 27.16 4.47975 26.98 4.59975C27.1 4.59975 27.16 4.59975 27.28 4.53975C29.91 3.45975 32.78 2.79975 35.83 2.79975C37.68 2.79975 39.48 3.03975 41.27 3.45975C42.59 3.75975 43.9 4.17975 45.16 4.71975C45.22 4.71975 45.28 4.77975 45.4 4.77975C45.52 4.83975 45.58 4.83975 45.7 4.89975C45.64 4.89975 45.64 4.83975 45.58 4.83975C47.37 5.25975 49.11 5.79975 50.72 6.39975C49.82 6.21975 48.93 6.03975 48.03 5.91975C48.33 6.03975 48.63 6.21975 48.93 6.39975C49.89 6.51975 50.84 6.69975 51.74 6.93975C51.98 6.93975 52.16 6.99975 52.34 7.05975H52.33Z" fill="#626262"/>
<path d="M65.61 18.0597C65.79 18.4197 65.97 18.7797 66.09 19.1397C66.93 21.1197 67.65 23.2897 68.18 25.5697C68.72 26.5297 69.2 27.4897 69.62 28.5197C69.74 28.8197 69.86 29.1197 69.98 29.4197C69.14 25.4497 67.59 21.5397 65.61 18.0597Z" fill="#626262"/>
<path d="M22.9 6.45975C22.66 6.51975 22.36 6.57975 22.12 6.63975C21.04 6.87975 20.03 7.17975 19.01 7.53975C16.32 8.49975 13.87 9.87975 11.83 11.9297C11.23 12.5297 10.63 13.1897 10.1 13.8497C8.13002 16.2497 6.45002 19.1997 5.08002 22.3297C4.72002 23.2297 4.42002 24.1297 4.18002 25.0997C4.24002 25.0397 4.24002 24.9797 4.30002 24.8597C4.48002 24.4997 4.72002 24.1997 4.90002 23.8397C6.69002 19.7497 9.33002 15.8397 12.5 12.6597C13.46 11.6997 14.47 10.9197 15.61 10.2597C14.53 11.2197 13.58 12.1197 12.74 12.9097C11.96 13.6897 11.3 14.4697 10.77 15.3097C11.43 14.5297 12.15 13.7497 12.86 12.9697C14.42 11.4097 16.15 10.3197 18 9.53975C18.48 9.17975 18.96 8.81975 19.5 8.39975C19.74 8.27975 20.04 8.21975 20.28 8.15975C19.8 8.51975 19.32 8.87975 18.84 9.23975C18.96 9.17975 19.02 9.17975 19.14 9.11975C19.86 8.63975 20.58 8.21975 21.29 7.85975C21.41 7.79975 21.47 7.73975 21.59 7.73975C21.77 7.61975 22.01 7.49975 22.19 7.31975C22.73 6.95975 23.27 6.59975 23.86 6.29975C23.44 6.35975 23.2 6.41975 22.9 6.47975V6.45975Z" fill="#626262"/>
<path d="M69.02 40.9697C69.14 40.4897 69.2 40.0697 69.32 39.5897C69.26 39.8897 69.2 40.1897 69.08 40.4897C69.08 40.6697 69.02 40.8497 69.02 40.9697Z" fill="#626262"/>
<path d="M63.1 51.7297C63.52 51.2497 63.94 50.8297 64.36 50.3497C64.48 50.1697 64.66 49.9897 64.78 49.8097C64.82 49.7697 64.86 49.7297 64.9 49.6897C64.96 49.6297 65.02 49.5097 65.08 49.4497V49.2097C65.14 48.8497 65.2 48.5497 65.26 48.1897C64.78 49.0897 64.3 49.9297 63.7 50.8297C63.52 51.1297 63.34 51.4297 63.1 51.7297Z" fill="#626262"/>
<path d="M57.11 56.9597L56.87 57.1997C55.14 58.9397 53.4 60.4497 51.73 61.7097C51.67 61.7697 51.61 61.8297 51.55 61.8297C51.31 62.0697 51.01 62.2497 50.77 62.4897C51.43 62.0697 52.09 61.6497 52.68 61.1697C54.18 60.0897 55.67 58.8297 57.05 57.3797C58.43 55.9997 59.62 54.6697 60.7 53.2897C60.88 53.0497 61.06 52.8697 61.24 52.6297C61.12 52.7497 61.06 52.8697 60.94 52.9897C59.68 54.3697 58.37 55.6997 57.11 56.9597Z" fill="#626262"/>
<path d="M5.68002 46.4997C5.68002 46.4397 5.62002 46.4397 5.62002 46.3797C5.32002 45.8997 5.02002 45.4197 4.72002 44.9397C4.78002 45.1797 4.78002 45.4197 4.84002 45.6597C4.90002 46.0197 5.02002 46.3797 5.08002 46.7997C5.38002 47.3397 5.74002 47.9397 6.04002 48.4797C5.98002 48.1197 5.86002 47.7597 5.80002 47.3397C5.80002 47.0397 5.74002 46.7397 5.68002 46.4997Z" fill="#626262"/>
<path d="M15.13 56.8997C14.65 56.4197 14.17 55.9397 13.69 55.4597C12.37 54.1397 11 52.7497 9.62002 51.3097C11 53.2897 12.73 55.2197 14.7 57.2597L14.76 57.3197C15.84 58.3997 16.91 59.4797 18.11 60.6297C18.77 61.2297 19.43 61.8897 20.14 62.4897C20.74 62.7897 21.4 63.0897 22.05 63.3297C21.57 62.9697 21.15 62.6097 20.67 62.1897C18.64 60.4497 16.84 58.6397 15.11 56.8997H15.13Z" fill="#626262"/>
<path d="M7.65002 50.1597C7.59002 50.0397 7.47002 49.9197 7.41002 49.7997C7.47002 50.0997 7.59002 50.3997 7.65002 50.6397L7.71002 50.6997C7.89002 50.9397 8.13002 51.1797 8.31002 51.4197C8.49002 51.5997 8.67002 51.8397 8.85002 52.0197C8.61002 51.7197 8.43002 51.4197 8.19002 51.1197C8.07002 50.7597 7.89002 50.4597 7.65002 50.1597Z" fill="#626262"/>
<path d="M27.15 67.0597C26.73 66.9997 26.31 66.9397 25.89 66.8197C25.95 66.8797 26.01 66.8798 26.07 66.9398C26.79 67.0598 27.57 67.1798 28.34 67.2998C28.28 67.2998 28.28 67.2397 28.22 67.2397C27.92 67.2397 27.5 67.1197 27.14 67.0597H27.15Z" fill="#626262"/>
<path d="M22.72 64.6497C22.9 64.7697 23.02 64.8898 23.2 65.0098C23.8 65.2498 24.46 65.4297 25.05 65.6097H25.17C24.99 65.4897 24.81 65.3697 24.63 65.2497C23.97 65.0697 23.37 64.8297 22.72 64.6497Z" fill="#626262"/>
<path d="M40.01 68.4997C38.69 68.7997 37.26 68.9798 35.82 68.9798C34.8 68.9798 33.85 68.9197 32.89 68.7397C31.45 68.6797 30.14 68.5597 28.88 68.3797C29.48 68.6197 30.14 68.8597 30.79 69.0997C32.58 69.3397 34.26 69.4597 35.81 69.4597C37.78 69.4597 40 69.2198 42.27 68.7998C43.35 68.4398 44.36 67.9597 45.38 67.4197C44.9 67.4797 44.36 67.5397 43.88 67.5997C42.62 67.9597 41.37 68.2597 39.99 68.4997H40.01Z" fill="#626262"/>
<path d="M45.99 5.00975C46.59 5.30975 47.19 5.54975 47.78 5.90975C47.84 5.90975 47.96 5.90975 48.02 5.96975C47.72 5.84975 47.42 5.66975 47.18 5.54975C46.76 5.30975 46.4 5.18975 45.98 5.00975H45.99Z" fill="#525252"/>
<path d="M19.91 10.2397C19.67 10.3597 19.49 10.4797 19.25 10.5997C17.58 11.9797 16.08 13.4297 14.7 14.8097C13.03 16.4897 11.59 18.1197 10.33 19.7397C10.27 19.7997 10.27 19.9197 10.21 19.9797C11.71 18.1197 13.26 16.4297 14.76 14.8697C16.26 13.3697 17.93 11.7997 19.72 10.3597C19.84 10.2997 19.9 10.2997 19.9 10.2397H19.91Z" fill="#525252"/>
<path d="M3.52002 33.8097C3.40002 34.5297 3.34002 35.2497 3.34002 36.0297C3.34002 36.8097 3.34002 37.6497 3.40002 38.4897C3.46002 39.0297 3.58002 39.5697 3.70002 40.0497C3.46002 38.7297 3.40002 37.3997 3.40002 36.0197C3.40002 35.2997 3.40002 34.5797 3.52002 33.7997V33.8097Z" fill="#525252"/>
<path d="M69.97 29.3597C70.09 30.0197 70.21 30.6797 70.33 31.3397C70.81 32.8397 71.11 34.4097 71.11 36.0897C71.11 37.1097 71.05 38.1897 70.93 39.2197C71.11 38.1997 71.23 37.1797 71.23 36.0897C71.23 33.7497 70.75 31.5197 69.97 29.3597Z" fill="#525252"/>
<path d="M48.26 65.8497C48.14 65.8497 48.02 65.9097 47.9 65.9097C47.78 65.9697 47.72 66.0297 47.6 66.0897C47.66 66.0897 47.72 66.0897 47.78 66.0297C47.96 66.0297 48.08 65.9097 48.26 65.8497ZM51.61 63.9297C51.07 64.1097 50.53 64.2297 50 64.4097C49.94 64.4697 49.82 64.5297 49.76 64.5897C50.24 64.4697 50.72 64.3497 51.2 64.2297C51.38 64.1097 51.5 63.9897 51.62 63.9297H51.61ZM62.79 52.2697C62.73 52.3897 62.61 52.4497 62.55 52.5697C62.25 52.9897 61.89 53.4097 61.59 53.8897C60.57 55.4497 59.38 56.9597 58 58.3397C56.62 59.7197 55.07 60.9297 53.45 61.9497C53.15 62.1897 52.79 62.4297 52.49 62.6697C53.21 62.3697 53.93 62.0697 54.58 61.7097C55.84 60.6297 57.03 59.5497 58.05 58.4597C59.43 57.0797 60.62 55.7497 61.76 54.4297C62.12 53.6497 62.42 52.9897 62.78 52.2697H62.79ZM64.76 49.8697C64.72 49.9097 64.7 49.9497 64.7 49.9897C64.7 49.9297 64.76 49.8697 64.76 49.8697Z" fill="#525252"/>
<path d="M11.9 11.9297C13.87 10.0697 16.21 8.55975 19.2 7.35975C20.1 6.69975 21.11 6.03975 22.13 5.43975C20.75 5.79975 19.44 6.21975 18.18 6.69975C15.67 8.13975 13.39 9.82974 11.54 11.6897C9.81002 13.4297 8.37002 15.4797 7.17002 17.6997C8.07002 16.3797 8.96002 15.0497 10.04 13.8497C10.7 13.1297 11.24 12.4697 11.89 11.9297H11.9Z" fill="#4D4D4D"/>
<path d="M13.99 58.0397C12.26 56.2997 10.28 54.1897 8.49002 51.8497C8.79002 52.8097 9.09002 53.7097 9.51002 54.6197C10.83 56.1197 12.08 57.5097 13.34 58.7097C15.19 60.5697 17.29 62.0797 19.62 63.2797C18.24 62.0797 16.93 60.7497 15.67 59.5497C15.07 59.0697 14.53 58.5897 14 58.0497L13.99 58.0397Z" fill="#4D4D4D"/>
<path d="M24.04 64.7697C25.24 64.8897 26.37 64.8897 27.51 64.9497C25.54 64.5897 23.74 64.0497 22.01 63.3897C22.67 63.8097 23.39 64.2897 24.04 64.7697Z" fill="#4D4D4D"/>
<path d="M5.32002 47.6397C5.20002 47.4597 5.08002 47.2797 4.96002 47.0997L5.50002 48.7197C5.62002 48.8997 5.68002 49.0797 5.80002 49.2597C6.10002 49.7997 6.46002 50.3997 6.82002 50.9397C6.58002 50.2197 6.40002 49.4997 6.22002 48.7797C5.86002 48.4197 5.62002 47.9997 5.32002 47.6397Z" fill="#4D4D4D"/>
<path d="M26.61 4.58975C26.25 4.64975 25.89 4.70975 25.53 4.76975C24.51 5.24975 23.5 5.78975 22.54 6.38975C22.84 6.32975 23.08 6.26975 23.38 6.20975C24.46 5.54975 25.53 5.06975 26.61 4.58975Z" fill="#4D4D4D"/>
<path d="M1.85002 30.0197C2.03002 29.1197 2.33002 28.1597 2.57002 27.2497C2.99002 25.5097 3.53002 23.6997 4.18002 21.9597C2.98002 24.8497 2.09002 27.8497 1.55002 30.8597C1.67002 30.5597 1.73002 30.2597 1.85002 30.0197Z" fill="#4D4D4D"/>
<path d="M32.65 65.8597H30.56C32.35 65.9197 34.15 65.9197 35.94 65.9197C37.08 65.9197 38.15 65.8597 39.23 65.7397C38.15 65.7997 37.08 65.7998 35.94 65.7998C34.8 65.8598 33.73 65.8597 32.65 65.8597Z" fill="#4D4D4D"/>
<path d="M49.28 9.27975C48.98 9.21975 48.74 9.09975 48.44 9.03975C49.1 9.45975 49.76 9.93975 50.41 10.4197C50.05 10.0597 49.69 9.63975 49.27 9.27975H49.28Z" fill="#4D4D4D"/>
<path d="M56.46 15.4097C57.66 16.6097 58.85 17.8697 59.93 19.2597C60.89 20.1597 61.84 21.0597 62.74 22.0297C61.3 19.8697 59.57 17.7597 57.42 15.5397C57.24 15.3597 57.06 15.1797 56.82 14.9397C55.92 14.0397 55.09 13.1997 54.19 12.4097C53.35 11.6897 52.52 10.9097 51.62 10.2497C51.56 10.1897 51.5 10.1897 51.38 10.1297C52.04 10.8497 52.7 11.5097 53.29 12.2297C54.49 13.3097 55.44 14.3897 56.46 15.4197V15.4097Z" fill="#4D4D4D"/>
<path d="M55.56 62.4897C54.54 63.3897 53.53 64.1697 52.51 64.8297C52.99 64.6497 53.41 64.5297 53.89 64.3497C54.43 64.1097 54.97 63.8697 55.45 63.6297C57.18 62.9097 62.33 58.0397 62.99 56.2397C63.29 55.6997 63.53 55.0397 63.71 54.4397C62.27 56.4797 60.66 58.3497 59.22 59.7897C58.14 60.8697 56.89 61.7697 55.57 62.4997L55.56 62.4897Z" fill="#4D4D4D"/>
<path d="M35.88 3.92975C35.58 3.92975 35.28 3.92975 34.92 3.98975C33.6 4.04975 32.41 4.34975 31.21 4.64975C32.71 4.40975 34.26 4.34975 35.88 4.34975C37.5 4.34975 39.17 4.40975 40.96 4.64975C40.12 4.46975 39.34 4.28975 38.45 4.16975C37.61 4.04975 36.72 3.92975 35.88 3.92975Z" fill="#4D4D4D"/>
<path d="M66.68 26.5297C66.44 25.8697 66.2 25.2097 65.9 24.5497C65.6 24.0697 65.24 23.5297 64.88 23.0497C65 23.4697 65.12 23.8297 65.24 24.2497C65.42 24.6097 65.6 24.9697 65.78 25.3897C66.14 25.8097 66.38 26.1697 66.68 26.5297Z" fill="#4D4D4D"/>
<path d="M44.79 6.93975C45.09 7.05975 45.39 7.23975 45.69 7.35975C46.41 7.47975 47.07 7.59975 47.78 7.77975C47.54 7.53975 47.24 7.29975 47 7.11975C46.28 7.05975 45.56 6.99975 44.79 6.93975Z" fill="#4D4D4D"/>
<path d="M70.33 31.3397C70.57 32.9597 70.69 34.5297 70.69 36.0897C70.69 37.4097 70.51 38.6797 70.21 39.8797C69.79 42.0997 69.01 44.3297 67.94 46.6097C67.94 46.6697 66.56 51.1197 65.67 53.0997C68.18 49.0097 70.28 44.1997 70.87 39.1497C70.99 38.1297 71.05 37.0497 71.05 36.0197C71.11 34.3997 70.81 32.8297 70.33 31.3297V31.3397Z" fill="#4D4D4D"/>
<path d="M47.9 65.9197C48.02 65.9197 48.14 65.8597 48.26 65.8597C48.5 65.7997 48.68 65.7997 48.92 65.7397C49.7 65.2597 50.48 64.7797 51.19 64.2397C51.19 64.2397 51.25 64.2397 51.25 64.1797C50.77 64.2997 50.29 64.4197 49.81 64.5397C49.15 65.0197 48.55 65.4997 47.9 65.9197Z" fill="#4D4D4D"/>
<path d="M20.03 65.6697C21.29 66.3297 22.54 66.9297 23.86 67.4697C24.52 67.6497 25.18 67.7697 25.83 67.8897C25.29 67.5897 24.75 67.2298 24.21 66.8698C23.31 66.6298 22.36 66.3297 21.52 65.9697C21.04 65.9097 20.5 65.7897 20.02 65.6697H20.03Z" fill="#525252"/>
<path d="M62.8 49.3797C60.89 51.7797 58.61 54.0697 56.4 56.2897L56.16 56.5297C52.81 59.8997 49.64 62.2397 46.29 63.7997C47.61 63.4997 48.8 63.0797 49.94 62.5997C52.33 60.8597 54.55 58.8697 56.52 56.8897C57 56.4097 57.54 55.8697 58.08 55.3297C59.34 54.1297 60.59 52.7997 61.85 51.4797C62.15 50.7597 62.51 50.0997 62.81 49.3797H62.8Z" fill="#474747"/>
<path d="M59.69 12.1097C62.02 14.4497 64 17.6397 65.43 21.3697C65.43 21.4297 65.49 21.4897 65.49 21.5497C65.97 22.3897 66.39 23.2897 66.75 24.1997C66.75 24.2597 66.81 24.3197 66.81 24.3197C66.69 23.7797 66.51 23.2997 66.39 22.8197C65.97 21.5597 65.55 20.4797 65.07 19.4497C63.57 16.6797 61.78 14.1597 59.75 12.1197C59.03 11.3997 58.25 10.7397 57.42 10.0797C56.28 9.35975 55.03 8.75975 53.65 8.27975C53.89 8.45975 54.13 8.63975 54.37 8.81975C56.4 9.53975 58.2 10.6197 59.69 12.1297V12.1097Z" fill="#474747"/>
<path d="M68.3 33.8697C68.18 32.4297 67.94 30.9197 67.58 29.4797C67.7 30.1397 67.76 30.7997 67.82 31.5197C68 33.0197 68.06 34.5897 68.06 36.0897C68.06 38.6197 67.52 40.9597 66.62 43.1197C66.62 43.8997 66.56 44.6197 66.5 45.3997V45.5798C66.68 45.2798 66.86 44.9197 66.98 44.6197C67.64 42.6397 68.06 40.7097 68.24 38.7297C68.3 37.8297 68.3 36.9298 68.3 36.0798C68.36 35.2998 68.36 34.5797 68.3 33.8597V33.8697Z" fill="#474747"/>
<path d="M41.32 4.64975C40.42 4.40975 39.47 4.22975 38.45 4.10975C39.29 4.22975 40.13 4.34975 40.96 4.58975C41.08 4.64975 41.2 4.64975 41.32 4.64975Z" fill="#474747"/>
<path d="M31.21 4.64975C32.41 4.34975 33.6 4.10975 34.92 4.04975H34.68C35.1 4.04975 35.46 3.98975 35.88 3.98975C38.15 3.98975 40.37 4.28975 42.4 4.82975C42.76 4.88975 43.06 4.94975 43.42 5.00975C40.91 4.16975 38.4 3.74975 35.88 3.74975C34.56 3.74975 33.25 3.86975 32.05 4.10975C30.67 4.34975 29.36 4.76975 28.1 5.24975C28.7 5.12975 29.3 4.94975 29.95 4.82975C30.37 4.76975 30.79 4.70975 31.21 4.64975Z" fill="#474747"/>
<path d="M6.15002 48.7797C6.33002 49.4997 6.51002 50.2197 6.75002 50.9397C6.69002 50.3997 6.63002 49.8597 6.57002 49.3197C6.45002 49.1397 6.33002 48.9597 6.15002 48.7797Z" fill="#474747"/>
<path d="M62.86 22.0897C63.22 22.4497 63.58 22.8097 63.88 23.1697C63.58 22.3297 63.28 21.5497 62.98 20.8297C62.44 20.2897 61.9 19.7497 61.36 19.2697C60.82 18.7897 60.34 18.3097 59.8 17.8297C58.96 17.0497 58.19 16.3297 57.47 15.5497C59.56 17.7097 61.36 19.8797 62.79 22.0397L62.85 22.0997L62.86 22.0897Z" fill="#474747"/>
<path d="M65.43 24.9697C65.55 25.1497 65.67 25.2697 65.79 25.4497C65.61 25.0897 65.43 24.7297 65.25 24.3097C65.31 24.5497 65.37 24.7297 65.43 24.9697Z" fill="#474747"/>
<path d="M48.5 9.03975C48.8 9.09975 49.04 9.21975 49.34 9.27975C48.86 8.79975 48.32 8.31975 47.78 7.83975C47.12 7.65975 46.4 7.53975 45.69 7.41975C46.65 7.89975 47.54 8.43975 48.5 9.03975Z" fill="#474747"/>
<path d="M51.49 10.1197C51.55 10.1797 51.61 10.1797 51.73 10.2397C52.63 10.9597 53.46 11.6797 54.3 12.3997C53.46 11.6797 52.69 10.9597 51.85 10.2997C51.61 10.1197 51.37 9.87975 51.07 9.69975C51.13 9.75975 51.19 9.81975 51.25 9.87975C51.31 9.93975 51.43 10.0597 51.49 10.1197Z" fill="#474747"/>
<path d="M35.88 6.81975H40.13C41.74 6.81975 43.3 6.87975 44.8 6.93975C45.52 6.99975 46.3 7.05975 46.95 7.11975C46.89 7.05975 46.83 6.99975 46.71 6.93975L46.65 6.87975C46.61 6.87975 46.57 6.85975 46.53 6.81975C46.35 6.75975 46.23 6.69975 46.05 6.69975C45.27 6.63975 44.55 6.57975 43.78 6.51975C41.33 6.39975 38.88 6.39975 36.54 6.39975H35.82C33.01 6.39975 30.08 6.45975 27.15 6.75975C26.79 6.81975 26.43 6.81975 26.07 6.87975H26.01C25.83 6.93975 25.59 6.99975 25.41 6.99975C25.17 7.11975 24.87 7.17975 24.63 7.29975C24.33 7.53975 24.03 7.77975 23.79 7.95975C23.43 8.25975 23.07 8.55975 22.71 8.85975C22.95 8.73975 23.25 8.67975 23.49 8.55975C24.45 8.19975 25.46 7.89975 26.54 7.65975C29.41 7.11975 32.46 6.81975 35.87 6.81975H35.88Z" fill="#474747"/>
<path d="M64.77 46.6197C64.71 46.9197 64.59 47.1597 64.53 47.4597C64.35 47.9397 64.23 48.4797 63.99 48.9597C63.99 48.9997 63.97 49.0397 63.93 49.0797C64.41 48.5397 64.83 47.9397 65.31 47.3397C65.37 46.6797 65.43 46.0197 65.49 45.4197C65.43 45.5397 65.37 45.6597 65.25 45.7797C65.13 46.0197 64.95 46.3197 64.77 46.6197Z" fill="#474747"/>
<path d="M43.9 65.2497C43.18 65.3697 42.46 65.4897 41.75 65.5497C40.91 65.6697 40.08 65.7297 39.18 65.7897C38.1 65.9097 37.03 65.9697 35.89 65.9697C34.16 65.9697 32.36 65.9697 30.51 65.9097H27.4C26.98 65.9097 26.62 65.9097 26.2 65.8497C26.56 65.9097 26.92 66.0297 27.22 66.0897C29.85 66.6297 32.36 66.9297 34.64 66.9897H35.84C37.4 66.9897 38.89 66.8697 40.39 66.6297C41.05 66.6297 41.71 66.5698 42.42 66.5098C43.5 66.1498 44.51 65.7897 45.47 65.3097H45.17C45.35 65.2497 45.53 65.1897 45.65 65.1297C45.89 65.0697 46.07 64.9497 46.31 64.8897C46.43 64.8297 46.61 64.7697 46.73 64.7097C46.67 64.7097 46.55 64.7697 46.49 64.7697C45.71 64.8897 44.82 65.0697 43.92 65.2497H43.9Z" fill="#474747"/>
<path d="M3.70002 27.9797C3.40002 28.6997 3.22002 29.4197 2.98002 30.1397C2.80002 31.0997 2.68002 32.0597 2.62002 32.9697C2.92002 31.4097 3.46002 29.8397 4.18002 28.3997C4.30002 28.1597 4.42002 27.9197 4.54002 27.6197C4.84002 27.1397 5.08002 26.5997 5.44002 26.1197C6.10002 24.6797 6.82002 23.1697 7.77002 21.7297C7.77002 21.6697 7.77002 21.6097 7.83002 21.5497C7.89002 21.4297 7.89002 21.3097 7.95002 21.1297C6.93002 22.3897 6.04002 23.7797 5.20002 25.1597C4.66002 26.1797 4.12002 27.0797 3.70002 27.9897V27.9797Z" fill="#474747"/>
<path d="M58.13 13.7297C57.41 13.0097 56.69 12.3497 55.92 11.7497C56.64 12.4097 57.36 13.0697 58.07 13.7897C58.61 14.3297 59.15 14.8697 59.68 15.4097C59.14 14.8097 58.66 14.2697 58.12 13.7297H58.13Z" fill="#474747"/>
<path d="M20.87 9.33975C20.33 9.75975 19.79 10.1797 19.26 10.5997C19.5 10.4797 19.68 10.3597 19.92 10.2397C20.28 9.93975 20.58 9.63975 20.88 9.33975H20.87Z" fill="#474747"/>
<path d="M3.70002 40.0597C3.58002 39.5197 3.46002 39.0397 3.40002 38.4997C3.52002 40.1797 3.76002 41.9897 4.12002 43.8497C4.30002 44.2097 4.54002 44.5697 4.72002 44.9297C4.60002 44.3897 4.54002 43.7897 4.42002 43.2497C4.12002 42.2297 3.88002 41.1497 3.70002 40.0597Z" fill="#474747"/>
<path d="M53.41 61.8897C52.99 62.1297 52.57 62.3697 52.15 62.5497C52.09 62.6097 52.03 62.6697 51.97 62.7297C51.79 62.9097 51.55 63.0897 51.37 63.2697C50.95 63.6297 50.47 63.9897 50.05 64.3497C50.59 64.2297 51.13 64.0497 51.67 63.8697C52.69 63.1497 53.64 62.3697 54.6 61.5297C53.88 61.8897 53.22 62.2497 52.51 62.4897C52.75 62.3697 53.11 62.1297 53.41 61.8897Z" fill="#474747"/>
<path d="M61.96 53.2297C61.84 53.4097 61.72 53.6497 61.6 53.8297C61.96 53.4097 62.26 52.9897 62.56 52.5097C62.32 52.8097 62.14 53.0497 61.96 53.2297Z" fill="#474747"/>
<path d="M62.8 52.2697C62.5 52.9297 62.14 53.6497 61.78 54.3097C62.44 53.5297 63.04 52.8097 63.57 52.0297C63.99 51.3697 64.41 50.6497 64.77 49.9897V49.9297C64.65 50.0497 64.53 50.2297 64.41 50.3497C63.87 51.0097 63.33 51.6697 62.8 52.2697Z" fill="#474747"/>
<path d="M18.59 64.8897C19.07 65.1897 19.55 65.4297 20.03 65.6697C20.51 65.7897 21.05 65.9097 21.53 66.0297C20.75 65.7297 19.97 65.3697 19.2 65.0697C19.02 65.0097 18.84 64.9497 18.6 64.8897H18.59Z" fill="#474747"/>
<path d="M11.18 16.3797C10.82 16.9797 10.46 17.5797 10.16 18.1797C10.88 16.9797 11.72 15.8397 12.67 14.7497C12.13 15.2897 11.65 15.8297 11.17 16.3697L11.18 16.3797Z" fill="#474747"/>
<path d="M46.35 6.69975H46.11C46.29 6.75975 46.41 6.81975 46.59 6.81975C46.63 6.81975 46.67 6.83975 46.71 6.87975C46.65 6.81975 46.59 6.75975 46.53 6.75975C46.47 6.75975 46.41 6.69975 46.35 6.69975Z" fill="#474747"/>
<path d="M28.4 5.66975C28.7 5.54975 29 5.36975 29.3 5.24975C29.9 5.00975 30.56 4.76975 31.15 4.58975C30.73 4.64975 30.31 4.70975 29.89 4.76975C29.29 4.88975 28.63 5.00975 28.04 5.18975C27.86 5.24975 27.62 5.36975 27.44 5.42975C27.26 5.48975 27.08 5.60975 26.9 5.66975C26.84 5.72975 26.78 5.72975 26.72 5.78975C26.9 5.78975 27.08 5.72975 27.26 5.72975C27.68 5.72975 28.04 5.66975 28.4 5.66975Z" fill="#474747"/>
<path d="M34.68 66.9398C32.41 66.8798 29.83 66.6397 27.26 66.0997C26.9 66.0397 26.54 65.9797 26.24 65.8597H25.58C26 66.0997 26.48 66.3997 26.9 66.6397C27.2 66.6997 27.44 66.7597 27.74 66.8197C30.31 67.2997 33.06 67.5997 35.87 67.5997C37.78 67.5997 39.64 67.3597 41.31 66.8797C39.52 66.9997 37.66 66.9997 35.87 66.9997C35.45 66.9397 35.09 66.9398 34.67 66.9398H34.68Z" fill="#474747"/>
<path d="M20.87 64.3497C20.83 64.3497 20.83 64.3497 20.87 64.3497C17.88 63.2097 15.07 61.5797 12.8 59.2997C11.9 58.3997 11.07 57.3797 10.35 56.2897C11.01 57.4297 11.79 58.4497 12.74 59.4197C14.59 61.2797 16.93 62.9097 19.56 64.1697C19.98 64.1697 20.4 64.2897 20.88 64.3497H20.87Z" fill="#474747"/>
<path d="M25.83 6.93975C25.59 6.93975 25.35 6.99975 25.11 7.05975L24.69 7.29975C24.93 7.17975 25.23 7.11975 25.47 6.99975C25.53 6.99975 25.65 6.93975 25.71 6.93975H25.83Z" fill="#474747"/>
<path d="M66.5 36.0997C66.5 33.0297 66.2 30.2097 65.6 27.5597C65.84 28.1597 66.02 28.7597 66.26 29.3597C66.08 27.7997 65.78 26.3497 65.42 24.9697C65.36 24.7297 65.3 24.5497 65.24 24.3097C64.82 23.4697 64.28 22.6297 63.74 21.7797C63.68 21.7197 63.68 21.5997 63.62 21.5397C63.62 21.4797 63.56 21.4197 63.56 21.3597C63.38 21.1197 63.14 20.8197 62.96 20.5797C62.9 20.4597 62.78 20.3997 62.72 20.2797C62.78 20.4597 62.9 20.6397 62.96 20.8197C63.32 21.5997 63.62 22.3797 63.86 23.1597C64.04 23.6397 64.16 24.1197 64.34 24.6597C64.82 26.2797 65.12 28.0297 65.36 29.8897C65.78 31.7497 66.02 33.7997 66.02 36.0197C66.02 38.1197 65.9 40.1097 65.66 42.0297C65.66 43.0497 65.6 44.0697 65.54 45.0997V45.2797C65.48 45.9397 65.42 46.5997 65.36 47.1997C65.42 47.1397 65.48 47.0797 65.54 46.9597C65.78 46.5997 66.08 46.2397 66.32 45.8197V45.7597C66.38 45.6397 66.44 45.5197 66.5 45.3997L66.5 45.2197C66.56 44.4397 66.62 43.7197 66.62 42.9397C66.62 42.3997 66.68 41.8597 66.68 41.3197C66.5 42.0397 66.32 42.6997 66.14 43.4197C66.44 40.9497 66.5 38.4297 66.5 36.0897V36.0997Z" fill="#474747"/>
<path d="M7.29002 20.5197C6.45002 21.5997 5.68002 22.6797 4.96002 23.8297C4.42002 25.0297 3.94002 26.2897 3.58002 27.4997C3.46002 28.0997 3.34002 28.6397 3.22002 29.2397C3.40002 28.8197 3.58002 28.3997 3.76002 27.9797C4.18002 27.0797 4.72002 26.1197 5.26002 25.2097C6.10002 23.8297 7.05002 22.4997 8.01002 21.1797C8.19002 20.6397 8.37002 20.0997 8.55002 19.5597C7.53002 20.8797 6.64002 22.2097 5.92002 23.5297C6.28002 22.5697 6.76002 21.5497 7.30002 20.5197H7.29002Z" fill="#474747"/>
<path d="M54.42 8.73975C54.18 8.55975 53.94 8.37975 53.7 8.19975C52.74 7.83975 51.73 7.59975 50.71 7.35975C51.07 7.53975 51.49 7.71975 51.85 7.89975C52.75 8.13975 53.58 8.43975 54.42 8.73975Z" fill="#474747"/>
<path d="M66.68 26.5397C66.86 26.7797 66.98 26.9597 67.16 27.1997C67.34 27.9197 67.46 28.6397 67.58 29.4197C67.94 30.8597 68.18 32.3697 68.3 33.8097C68.18 31.7097 68 29.8397 67.7 28.0397C67.7 27.9197 67.64 27.7997 67.64 27.6197C67.46 27.1997 67.22 26.7197 66.98 26.2997C66.68 25.6997 66.32 25.0997 65.9 24.4997C66.2 25.2797 66.44 25.8797 66.68 26.5397Z" fill="#474747"/>
<path d="M67.82 42.7697C68.06 41.3897 68.18 40.0697 68.3 38.7397C68.12 40.7197 67.64 42.6497 67.04 44.6297C67.28 43.9697 67.58 43.3697 67.82 42.7697Z" fill="#474747"/>
<path d="M51.67 65.0697C51.97 64.9497 52.33 64.8897 52.63 64.7697C53.65 64.0497 54.66 63.2697 55.68 62.4297C55.2 62.6697 54.78 62.9097 54.3 63.0897C53.4 63.8097 52.57 64.4697 51.67 65.0697Z" fill="#474747"/>
<path d="M42.34 4.82975C41.98 4.76975 41.62 4.70975 41.26 4.64975C41.14 4.64975 41.02 4.58975 40.9 4.58975C41.92 4.82975 42.87 5.12975 43.77 5.48975H44.01C44.25 5.48975 44.55 5.48975 44.79 5.54975H44.91C44.37 5.30975 43.83 5.12975 43.35 4.94975C43.05 4.94975 42.69 4.88975 42.33 4.82975H42.34Z" fill="#474747"/>
<path d="M48.02 5.90975C47.78 5.78975 47.48 5.60975 47.18 5.48975C47.48 5.66975 47.72 5.78975 48.02 5.90975Z" fill="#474747"/>
<path d="M50.12 7.23975C50.36 7.35975 50.54 7.53975 50.78 7.65975C50.96 7.71975 51.2 7.71975 51.38 7.77975C51.14 7.59975 50.9 7.47975 50.66 7.29975C50.48 7.29975 50.3 7.29975 50.12 7.23975Z" fill="#474747"/>
<path d="M55.26 11.1397C55.44 11.3197 55.68 11.4997 55.86 11.6797C56.64 12.2797 57.36 12.9397 58.07 13.6597C58.61 14.1997 59.09 14.7397 59.57 15.3397C59.93 15.6997 60.29 16.0597 60.59 16.4197C59.81 15.3997 59.03 14.4997 58.08 13.5297C57.24 12.6897 56.29 11.8497 55.27 11.1297L55.26 11.1397Z" fill="#474747"/>
<path d="M63.57 19.7397C64.41 20.7597 65.24 21.8397 66.02 22.9297C66.26 23.2897 66.56 23.7097 66.8 24.0697C66.44 23.1697 66.02 22.3297 65.54 21.4297C65.54 21.3697 65.48 21.3097 65.48 21.2497C65.48 21.2497 65.48 21.3097 65.54 21.3097C64.64 20.1097 63.69 18.9697 62.67 17.8197C62.91 18.5397 63.27 19.1397 63.57 19.7397Z" fill="#474747"/>
<path d="M22.72 8.19975C22.6 8.25975 22.42 8.31975 22.3 8.37975C22.18 8.43975 22.12 8.49975 22 8.55975C21.64 8.79975 21.22 9.09975 20.86 9.39975C20.56 9.69975 20.26 9.99975 19.9 10.2997C19.84 10.3597 19.78 10.3597 19.78 10.4197C19.84 10.3597 19.96 10.2997 20.02 10.2397C20.14 10.1797 20.26 10.1197 20.44 10.0597C21.22 9.69975 22 9.33975 22.77 9.03975C23.13 8.73975 23.49 8.43975 23.85 8.13975C24.15 7.89975 24.39 7.65975 24.69 7.47975C24.15 7.71975 23.61 7.89975 23.07 8.13975C22.95 8.07975 22.83 8.13975 22.71 8.19975H22.72Z" fill="#474747"/>
<path d="M4.12002 43.8497C3.76002 41.9897 3.52002 40.1797 3.40002 38.4997C3.34002 37.6597 3.34002 36.8197 3.34002 36.0297C3.34002 35.2397 3.40002 34.5297 3.52002 33.8097C3.70002 31.7697 4.18002 29.7197 4.90002 27.7397C5.08002 27.1997 5.32002 26.6597 5.50002 26.1197C5.20002 26.5997 4.90002 27.1397 4.60002 27.6197C4.48002 27.8597 4.36002 28.0997 4.24002 28.3997C3.52002 29.8397 2.98002 31.4097 2.68002 32.9697C2.56002 34.0497 2.56002 35.0697 2.56002 36.0397C2.56002 37.4197 2.68002 38.8697 2.86002 40.3697C2.86002 40.4897 2.86002 40.6097 2.92002 40.7297C3.04002 41.0297 3.10002 41.3297 3.22002 41.5697C3.28002 41.7497 3.34002 41.9297 3.46002 42.1097C3.58002 42.4697 3.76002 42.8297 3.94002 43.1897C3.88002 43.4297 4.00002 43.6697 4.12002 43.8497Z" fill="#474747"/>
<path d="M64.71 49.9797C64.35 50.6997 63.93 51.3597 63.51 52.0197C63.81 51.5997 64.11 51.1797 64.41 50.6997C64.59 50.4597 64.71 50.2197 64.89 49.9797C64.95 49.7997 64.95 49.6797 64.95 49.4997C64.89 49.6197 64.77 49.6797 64.71 49.7997C64.77 49.8597 64.71 49.9197 64.71 49.9797Z" fill="#474747"/>
<path d="M7.23002 53.3497C6.99002 52.9897 6.75002 52.6897 6.51002 52.3297C6.09002 51.7297 5.73002 51.1897 5.37002 50.5897C6.09002 52.3297 6.93002 54.0197 7.88002 55.5797C7.76002 55.1597 7.58002 54.7397 7.46002 54.3197C7.40002 54.0197 7.34002 53.7197 7.22002 53.3597L7.23002 53.3497Z" fill="#474747"/>
<path d="M4.96002 47.0997C4.78002 46.8597 4.66002 46.6797 4.54002 46.4397C4.30002 46.0797 4.06002 45.7197 3.88002 45.3597C3.88002 45.3597 3.88002 45.2997 3.82002 45.2997C3.82002 45.3597 3.88002 45.3597 3.88002 45.4197C4.18002 46.0797 4.48002 46.7397 4.78002 47.3997C4.96002 47.8197 5.20002 48.2397 5.44002 48.7197C5.26002 48.1797 5.08002 47.6397 4.96002 47.0997Z" fill="#474747"/>
<path d="M18.59 64.8897C17.87 64.7097 17.21 64.5297 16.56 64.2297C17.1 64.5297 17.64 64.8897 18.18 65.1297C19.85 66.0297 21.59 66.7497 23.38 67.3497C23.5 67.4097 23.68 67.4097 23.8 67.4697C22.48 66.9297 21.23 66.3297 19.97 65.6697C19.55 65.4297 19.07 65.1897 18.59 64.8897Z" fill="#474747"/>
<path d="M42.46 67.7197C42.16 67.7197 41.86 67.7797 41.5 67.7797C39.65 68.2597 37.73 68.4997 35.82 68.4997C34.09 68.4997 32.35 68.3797 30.68 68.1997C31.4 68.4397 32.18 68.6197 32.89 68.7397C33.85 68.7997 34.8 68.7998 35.82 68.7998C37.26 68.7998 38.63 68.6797 40.01 68.4997C40.85 68.2597 41.68 68.0197 42.46 67.7197Z" fill="#525252"/>
<path d="M25.05 5.84975L24.81 5.90975C24.63 5.96975 24.39 5.96975 24.21 6.02975C24.03 6.08975 23.67 6.32975 23.67 6.32975C23.85 6.26975 24.09 6.26975 24.27 6.20975C24.39 6.20975 24.57 6.14975 24.69 6.14975C24.75 6.08975 24.87 6.02975 24.93 5.96975C24.99 5.84975 25.05 5.84975 25.05 5.84975Z" fill="#2B2B2B"/>
<path d="M42.04 3.74975C41.86 3.68975 41.68 3.56975 41.5 3.50975C39.59 3.02975 37.67 2.78975 35.82 2.78975C34.5 2.78975 33.13 2.96975 31.81 3.38975C31.57 3.44975 31.33 3.56975 31.09 3.62975C31.03 3.62975 30.97 3.68975 30.91 3.68975C32.52 3.26975 34.14 3.02975 35.81 3.02975C38.14 3.02975 40.48 3.38975 42.81 4.16975C42.57 3.98975 42.33 3.86975 42.03 3.74975H42.04Z" fill="#2B2B2B"/>
<path d="M63.57 21.3697C63.69 21.5497 63.81 21.7297 63.99 21.9097C64.23 22.1497 65.13 23.1697 65.31 23.3497C65.13 22.9297 64.95 22.5097 64.71 22.0897C64.53 21.7297 64.35 21.3697 64.11 21.0697C63.63 20.2897 63.21 19.5097 62.61 18.7297C61.95 17.9497 61.29 17.2297 60.58 16.5097C61.3 17.4697 61.96 18.4897 62.55 19.5197C62.97 20.1197 63.27 20.7197 63.57 21.3797V21.3697Z" fill="#2B2B2B"/>
<path d="M5.50002 28.0997C4.54002 29.8997 3.83002 31.8297 3.53002 33.8097C3.47002 34.5297 3.41002 35.3097 3.41002 36.0297C3.41002 37.4097 3.53002 38.7397 3.71002 40.0597C3.89002 40.7197 4.07002 41.3797 4.31002 41.9797C4.61002 42.8197 4.97002 43.6597 5.39002 44.5097C5.27002 43.6697 5.21002 42.8297 5.09002 41.9197C4.61002 39.9997 4.37002 38.0697 4.37002 36.0897C4.37002 32.8997 4.97002 29.8397 6.22002 26.8297C5.98002 27.2497 5.68002 27.6697 5.50002 28.0897V28.0997Z" fill="#2B2B2B"/>
<path d="M48.62 65.9197C47.78 66.4597 46.89 66.9397 45.99 67.3597C44.85 67.8997 43.72 68.3798 42.52 68.7998C42.16 68.9198 41.86 69.0397 41.5 69.0997C39.71 69.6397 37.85 69.9398 35.88 69.9398C33.79 69.9398 31.81 69.5798 29.96 68.9798C29.36 68.7998 28.76 68.5597 28.23 68.3197C27.69 68.0797 27.09 67.7797 26.56 67.5397C26.14 67.2997 25.72 67.0597 25.24 66.8197C25.18 66.7597 25.06 66.6997 25 66.6997C24.76 66.6397 24.46 66.5797 24.22 66.5197C23.92 66.4597 23.68 66.4597 23.38 66.3997C22.78 66.3397 22.12 66.2197 21.53 66.0997C22.43 66.4597 23.32 66.6997 24.22 66.9997C24.76 67.3597 25.3 67.6597 25.83 68.0197C26.01 68.1397 26.25 68.2597 26.43 68.3797C26.67 68.4997 26.97 68.6798 27.21 68.7998C30.14 69.6398 33.07 70.1198 35.88 70.1198C37.38 70.1198 40.07 69.8797 43.42 68.6797C44.44 68.3197 45.45 67.8997 46.59 67.3597C47.49 66.9397 48.44 66.3997 49.4 65.8597C49.46 65.7997 49.58 65.7397 49.64 65.6797C49.4 65.7397 49.16 65.7398 48.92 65.7998C48.8 65.7998 48.74 65.8597 48.62 65.9197Z" fill="#2B2B2B"/>
<path d="M13.03 56.1797C11.65 54.8597 10.28 53.4097 8.90002 51.9697C10.34 53.9497 12.07 55.9397 14.04 57.9797L14.1 58.0397C14.58 58.5197 15.12 59.0597 15.6 59.5397C16.5 60.3197 17.45 61.0397 18.53 61.5797C17.09 60.2597 15.72 58.8697 14.4 57.5497C13.98 57.1297 13.5 56.6497 13.02 56.1697L13.03 56.1797Z" fill="#2B2B2B"/>
<path d="M22 64.5297C21.82 64.4097 21.7 64.2897 21.52 64.1697C20.86 63.8697 20.2 63.6297 19.61 63.2697C19.79 63.3897 19.91 63.5697 20.09 63.6897C20.33 63.9297 20.63 64.1097 20.87 64.3497C21.23 64.4697 21.59 64.5297 22.01 64.5297H22Z" fill="#2B2B2B"/>
<path d="M66.5 45.5897C66.44 45.7097 66.38 45.7697 66.32 45.8897C66.32 45.8897 66.32 45.9497 66.26 45.9497C66.14 46.1897 66.02 46.4897 65.9 46.7297C66.08 46.4897 66.26 46.1897 66.44 45.9497C66.44 45.8297 66.5 45.7097 66.5 45.5897Z" fill="#2B2B2B"/>
<path d="M29.48 67.4798C29.12 67.4198 28.76 67.4197 28.4 67.3597C29.18 67.7197 29.9 67.9598 30.73 68.2598C32.4 68.4398 34.14 68.5597 35.87 68.5597C37.78 68.5597 39.7 68.3197 41.55 67.8397C42.63 67.5397 43.7 67.1798 44.72 66.7598C44.84 66.6998 44.96 66.6398 45.08 66.5798C45.2 66.5198 45.38 66.3997 45.5 66.3397C45.32 66.3397 45.2 66.3397 45.02 66.3997C44.72 66.5197 44.36 66.6397 44.06 66.6997C43.04 66.9997 42.03 67.2397 41.01 67.4197C39.34 67.7197 37.6 67.8397 35.87 67.8397C33.18 67.8397 30.61 67.6598 28.21 67.2998C28.27 67.2998 28.27 67.3597 28.33 67.3597C28.69 67.3597 29.11 67.4198 29.47 67.4798H29.48Z" fill="#2B2B2B"/>
<path d="M9.26002 54.4297C9.56002 55.0897 9.92002 55.6897 10.34 56.2297C10.1 55.7497 9.86002 55.3297 9.62002 54.8497C9.50002 54.7297 9.38002 54.5497 9.26002 54.4297Z" fill="#2B2B2B"/>
<path d="M69.73 36.0897C69.73 34.6497 69.61 33.1397 69.37 31.6397C69.31 31.3397 68.83 30.0797 68.65 29.8397C68.71 30.1997 68.83 30.5597 68.89 30.9797C69.01 31.3397 69.07 31.6397 69.19 31.9997C69.31 32.4797 69.37 32.8997 69.43 33.3797C69.55 34.2797 69.67 35.1797 69.67 36.0897C69.67 37.2297 69.55 38.4297 69.37 39.6397C69.61 38.4997 69.73 37.2997 69.73 36.0897Z" fill="#2B2B2B"/>
<path d="M7.47002 47.8797C7.47002 47.9397 7.47002 47.9997 7.47002 47.9997C7.53002 48.1197 7.65002 48.2397 7.71002 48.3597C7.71002 48.4197 7.77002 48.4197 7.77002 48.4797C7.77002 48.4197 7.71002 48.3597 7.71002 48.3597C7.65002 48.1797 7.59002 47.9997 7.47002 47.8797Z" fill="#2B2B2B"/>
<path d="M2.98002 29.4197C2.92002 29.7197 2.86002 29.9597 2.80002 30.2597C2.80002 30.1997 2.86002 30.1397 2.86002 30.0797C2.86002 29.8997 2.92002 29.6597 2.98002 29.4197Z" fill="#2B2B2B"/>
<path d="M2.03002 42.0497C2.15002 43.0697 2.39002 44.0297 2.63002 44.9997C2.99002 45.8997 3.41002 46.7997 3.83002 47.7097C3.59002 46.8697 3.35002 45.9697 3.17002 45.0697C2.75002 44.1097 2.39002 43.0897 2.03002 42.0597V42.0497Z" fill="#2B2B2B"/>
<path d="M55.38 63.6897C53.71 64.7697 51.97 65.6697 50.12 66.4597C50 66.5197 49.88 66.6397 49.76 66.6997C52.03 66.1597 54.13 65.4397 56.1 64.4197C57.71 63.3397 59.21 62.1397 60.53 60.8097C61.79 59.5497 62.92 58.0997 63.88 56.5397C64.18 55.9997 64.42 55.3997 64.66 54.7997C63.16 56.9597 61.61 58.8297 60.05 60.3897C58.67 61.7697 57.06 62.8597 55.38 63.6997V63.6897Z" fill="#2B2B2B"/>
<path d="M46.89 5.79975C47.19 5.85975 47.49 5.85975 47.79 5.91975C47.19 5.61975 46.59 5.31975 46 5.01975C45.94 4.95975 45.82 4.95975 45.76 4.89975H45.82C46.18 5.19975 46.54 5.49975 46.9 5.79975H46.89Z" fill="#2B2B2B"/>
<path d="M52.21 9.39975C52.87 9.69975 53.47 10.0597 54.12 10.4197C54.54 10.6597 54.9 10.8997 55.32 11.1997C53.82 9.87975 52.33 8.73975 50.83 7.70975C50.41 7.64975 49.99 7.52975 49.57 7.46975C50.29 7.94975 50.95 8.36975 51.6 8.90975C51.78 9.02975 51.96 9.20975 52.2 9.38975L52.21 9.39975Z" fill="#2B2B2B"/>
<path d="M67.88 25.9997C67.94 26.2997 68 26.5397 68.06 26.8397C68.12 26.9597 68.18 27.0197 68.24 27.1397C68.3 27.2597 68.42 27.3797 68.48 27.5597C68.42 27.3197 68.36 27.1397 68.3 26.8997C68.06 26.0597 67.76 25.2797 67.52 24.4997C67.52 24.4397 67.46 24.4397 67.46 24.3797C67.58 24.7397 67.64 25.0997 67.76 25.4597C67.76 25.5797 67.82 25.8197 67.88 25.9997Z" fill="#2B2B2B"/>
<path d="M13.33 15.4697C11.83 17.0297 10.52 18.5997 9.32002 20.0997C9.14002 20.6397 8.96002 21.1197 8.78002 21.6597C9.02002 21.3597 9.32002 21.0597 9.56002 20.7597C9.62002 20.6997 9.68002 20.6397 9.74002 20.5797C9.92002 20.3997 10.04 20.1597 10.22 19.9797C10.28 19.9197 10.28 19.7997 10.34 19.7397C11.6 18.1197 13.03 16.4297 14.71 14.8097C16.09 13.4297 17.64 11.9797 19.26 10.5997C17.47 11.6197 15.79 12.9497 14.3 14.4497C14 14.7497 13.7 15.1097 13.34 15.4697H13.33Z" fill="#2B2B2B"/>
<path d="M20.45 8.67975C20.33 8.73975 20.21 8.73975 20.03 8.79975C19.73 8.91975 19.37 9.03975 19.07 9.09975C18.71 9.33975 18.29 9.57975 17.93 9.87975C16.49 11.0197 15.06 12.3397 13.62 13.7897C13.26 14.1497 12.96 14.4497 12.66 14.8097C12.96 14.4497 13.32 14.1497 13.68 13.7897C15.24 12.2297 16.91 10.9597 18.76 9.87975C19 9.75975 19.3 9.57975 19.54 9.45975C20.14 9.09975 20.98 8.73975 21.57 8.43975C21.15 8.37975 20.73 8.55975 20.43 8.67975H20.45Z" fill="#2B2B2B"/>
<path d="M5.79002 25.6297C6.27002 24.9097 6.81002 24.1297 7.35002 23.4097C7.41002 23.1097 7.47002 22.8697 7.53002 22.5697C6.93002 23.5897 6.33002 24.6097 5.80002 25.6397L5.79002 25.6297Z" fill="#2B2B2B"/>
<path d="M55.74 60.8597C56.04 60.6797 56.34 60.4397 56.64 60.1997C57.18 59.7197 57.72 59.1797 58.25 58.6397C58.97 57.9197 59.69 57.1397 60.34 56.3597L60.4 56.2997C60.88 55.6397 61.3 54.9797 61.72 54.3197C60.58 55.6397 59.39 57.0297 58.01 58.3497C56.93 59.4297 55.8 60.5097 54.54 61.5997C54.96 61.3597 55.38 61.1197 55.74 60.8797V60.8597Z" fill="#2B2B2B"/>
<path d="M51.61 63.9297C51.49 64.0497 51.37 64.1097 51.25 64.2297C51.55 64.1697 51.85 64.0497 52.15 63.9297C52.33 63.8097 52.51 63.6897 52.63 63.5697C52.33 63.6897 52.03 63.8097 51.73 63.8697C51.73 63.8697 51.67 63.9297 51.61 63.9297Z" fill="#2B2B2B"/>
<path d="M67.46 46.2597C67.1 47.2197 66.68 48.1197 66.26 49.0897C66.2 49.2697 66.08 49.4497 66.02 49.6297C65.9 49.8697 65.78 50.0497 65.72 50.2897C65.3 51.0697 64.82 51.8497 64.34 52.6297C64.82 51.9697 65.3 51.3097 65.72 50.6497C65.48 51.3697 65.18 52.0297 64.82 52.6897C65.12 52.2097 65.42 51.7897 65.66 51.3097C65.72 51.0097 65.78 50.7097 65.84 50.4097C66.44 49.4497 67.04 48.4897 67.51 47.5197C67.51 47.4597 67.69 47.3997 67.93 46.6797C68.29 45.6597 68.83 44.3397 69.07 43.2497C68.89 43.6697 68.65 44.0897 68.41 44.5097C68.11 45.0497 67.81 45.6497 67.45 46.2497L67.46 46.2597Z" fill="#2B2B2B"/>
<path d="M13.63 63.0297C14.59 63.7497 15.78 64.4097 17.16 65.1297C16.74 64.8297 16.32 64.5897 15.9 64.2897C15.06 63.9297 14.34 63.5097 13.63 63.0297Z" fill="#2B2B2B"/>
<path d="M36.42 3.98975C37.08 4.04975 37.8 4.10975 38.45 4.16975C39.41 4.28975 40.42 4.40975 41.32 4.64975C41.68 4.70975 42.04 4.76975 42.4 4.82975C40.37 4.28975 38.21 3.98975 35.88 3.98975C35.46 3.98975 36.24 3.98975 36.42 3.98975Z" fill="#A3A3A3"/>
<path d="M22.78 8.91975C20.87 10.5997 19.01 12.4697 17.22 14.3297C16.74 14.8097 16.2 15.3497 15.72 15.8297L15.3 16.2497C13.09 18.4697 10.87 20.6997 8.96002 23.0397C8.66002 23.9397 8.36002 24.8397 8.18002 25.8697C9.91002 22.3197 12.55 19.1397 15.78 15.8897L16.32 15.3497C18.65 13.0097 21.05 10.5997 23.62 8.67975C23.32 8.73975 23.02 8.85975 22.78 8.91975Z" fill="#A3A3A3"/>
<path d="M6.39002 45.7097V45.1697C6.39002 44.9297 6.33002 44.6297 6.33002 44.3897C5.97002 41.8597 5.85002 39.0997 5.85002 36.0897C5.85002 34.2297 6.03002 32.4197 6.45002 30.7997C6.51002 29.8997 6.63002 28.9997 6.81002 28.0897C6.87002 27.4297 6.93002 26.8297 6.99002 26.2297C5.67002 29.1197 4.90002 32.3597 4.90002 36.0897C4.90002 38.1297 4.96002 40.1197 5.14002 41.9197C5.44002 43.1797 5.86002 44.4497 6.40002 45.7097H6.39002Z" fill="#A3A3A3"/>
<path d="M65.85 25.4497C65.73 25.2697 65.61 25.1497 65.49 24.9697C65.85 26.3497 66.15 27.7997 66.33 29.3597C66.99 31.5797 67.35 33.8097 67.35 36.0897C67.35 37.8897 67.17 39.6997 66.75 41.4997C66.75 42.0397 66.75 42.5797 66.69 43.1197C67.59 40.9597 68.13 38.6697 68.13 36.0897C68.13 34.5297 68.07 33.0197 67.89 31.5197C67.41 29.4197 66.75 27.4297 65.86 25.4497H65.85Z" fill="#A3A3A3"/>
<path d="M35.88 66.9398C35.82 66.9398 35.46 66.9398 35.88 66.9398C35.88 66.9398 39.53 67.0597 41.32 66.8197C41.68 66.6997 42.04 66.6397 42.4 66.5197C41.74 66.5797 41.08 66.5798 40.37 66.5798C38.93 66.8198 37.44 66.8798 35.88 66.9398Z" fill="#A3A3A3"/>
<path d="M45.81 65.0697C45.99 65.0097 46.17 64.8898 46.29 64.8298C46.05 64.9498 45.87 65.0097 45.63 65.0697C45.45 65.1297 45.27 65.1897 45.15 65.2497H45.45C45.57 65.1897 45.69 65.1297 45.81 65.0697Z" fill="#A3A3A3"/>
<path d="M62.86 52.1497C62.98 52.0297 63.04 51.9097 63.16 51.7297C63.1 51.7897 63.04 51.8497 62.98 51.9097C62.8 52.1497 62.56 52.3297 62.38 52.5697C62.26 52.8097 62.14 52.9897 62.02 53.2297C62.2 52.9897 62.44 52.7497 62.62 52.5697C62.62 52.4497 62.74 52.2697 62.86 52.1497Z" fill="#A3A3A3"/>
<path d="M25.83 6.93975C25.71 6.99975 25.59 6.99975 25.53 7.05975C25.71 6.99975 25.95 6.93975 26.13 6.93975C26.01 6.87975 25.89 6.93975 25.83 6.93975Z" fill="#A3A3A3"/>
<path d="M51.07 9.69975C51.31 9.87975 51.55 10.1197 51.85 10.2997C52.69 10.9597 53.46 11.6797 54.3 12.3997C55.2 13.2397 57.29 15.2897 57.47 15.5297C58.25 16.2497 59.03 17.0297 59.8 17.8097C60.34 18.2897 60.82 18.7697 61.36 19.2497C61.9 19.7897 62.44 20.2697 62.97 20.8097C62.91 20.6297 62.79 20.4497 62.73 20.2697C61.83 19.1897 60.88 18.1697 59.92 17.1397C59.08 16.2397 58.19 15.3397 57.35 14.4897C56.45 13.5897 55.56 12.7497 54.72 11.9597C53.28 10.6997 51.91 9.61975 50.47 8.64975C50.05 8.34975 49.63 8.10975 49.21 7.86975C49.39 8.04975 49.63 8.22975 49.81 8.46975C50.23 8.82975 50.65 9.24975 51.07 9.66975V9.69975Z" fill="#A3A3A3"/>
<path d="M62.74 21.9697C62.8 22.0897 62.86 22.1497 62.92 22.2697C63.46 23.0497 63.94 23.8897 64.36 24.6697C64.24 24.1897 64.06 23.6497 63.88 23.1697C63.58 22.8097 62.8 22.0297 62.74 21.9697Z" fill="#A3A3A3"/>
<path d="M65.31 45.7097C65.37 45.5897 65.43 45.4697 65.55 45.3497V45.1697C65.49 45.3497 65.37 45.5297 65.31 45.7097Z" fill="#A3A3A3"/>
<path d="M59.03 12.7697C57.59 11.2697 56.04 9.93975 54.42 8.73975C53.58 8.43975 52.75 8.13975 51.85 7.95975C54.24 9.21975 56.64 10.8497 58.79 13.0097C60.29 14.5097 61.54 16.1397 62.62 17.9397C63.64 19.0797 64.59 20.2197 65.49 21.4297C65.49 21.4297 65.49 21.3697 65.43 21.3697C63.76 18.2397 61.6 15.3597 59.03 12.7697Z" fill="#A1A1A1"/>
<path d="M45.69 4.88975C46.17 5.06975 46.65 5.30975 47.13 5.54975C47.43 5.66975 47.73 5.84975 48.03 5.96975C48.93 6.08975 49.82 6.20975 50.72 6.44975C49.11 5.78975 47.37 5.30975 45.58 4.88975C45.64 4.82975 45.7 4.82975 45.7 4.88975H45.69Z" fill="#A1A1A1"/>
<path d="M7.17002 24.7897C6.81002 25.4497 6.51002 26.1097 6.21002 26.7697C6.45002 26.3497 6.75002 25.9297 7.05002 25.5097C7.05002 25.3297 7.11002 25.0897 7.17002 24.7897Z" fill="#A1A1A1"/>
<path d="M20.03 10.1797C19.97 10.2397 19.85 10.2997 19.79 10.3597C18.71 11.4397 17.58 12.5197 16.5 13.6097C16.02 14.0897 15.48 14.6297 15 15.1097L14.58 15.5297C13.08 17.0297 11.53 18.5997 10.09 20.1597C9.85002 20.6997 9.55002 21.2397 9.37002 21.7797C11.04 19.3097 13.02 17.1497 15.05 15.1097L15.59 14.5697C17.15 13.0097 18.76 11.3797 20.43 9.87975C20.31 10.0597 20.13 10.1197 20.01 10.1797H20.03Z" fill="#A1A1A1"/>
<path d="M69.32 36.0997C69.32 36.9997 69.26 37.8997 69.2 38.7997C69.32 37.8997 69.38 36.9997 69.32 36.0997C69.38 35.3197 69.32 34.5397 69.26 33.7597C69.32 34.4797 69.32 35.2597 69.32 36.0997Z" fill="#A1A1A1"/>
<path d="M66.86 45.0497C67.16 44.5697 67.4 44.0897 67.7 43.6097C67.76 43.3097 67.82 43.0697 67.82 42.7697C67.58 43.4297 67.28 44.0297 67.04 44.6297C66.92 44.7497 66.92 44.8697 66.86 45.0497Z" fill="#A1A1A1"/>
<path d="M67.16 27.2597C66.98 27.0197 66.86 26.7797 66.68 26.5997C67.04 27.5597 67.34 28.5197 67.58 29.4897C67.46 28.7097 67.28 27.9897 67.16 27.2697V27.2597Z" fill="#A1A1A1"/>
<path d="M45.81 3.86975C44.43 3.32975 43.12 2.90975 41.74 2.54975C42.28 2.78975 42.82 3.08975 43.36 3.38975C44.2 3.50975 44.97 3.68975 45.81 3.86975Z" fill="#A1A1A1"/>
<path d="M39.95 2.90975C38.63 2.48975 37.32 2.24975 35.82 2.24975C33.61 2.24975 31.39 2.60975 29.36 3.26975C28.7 3.56975 28.04 3.92975 27.39 4.28975C30.2 3.26975 33.01 2.72975 35.82 2.72975C37.14 2.72975 38.51 2.78975 39.95 2.90975Z" fill="#A1A1A1"/>
<path d="M52.63 64.7697C52.33 64.8897 51.97 64.9497 51.67 65.0697C51.63 65.1097 51.59 65.1498 51.55 65.1898C51.91 65.0698 52.21 64.9497 52.57 64.8897C52.57 64.8497 52.59 64.8097 52.63 64.7697Z" fill="#A1A1A1"/>
<path d="M35.88 70.8497C34.09 70.8497 32.29 70.6097 30.62 70.0697C28.47 69.7697 26.25 69.2298 23.98 68.5098C27.93 70.0698 32.05 70.9098 35.94 70.9098C37.44 70.9098 40.07 70.6697 43.42 69.5897C43.12 69.6497 42.82 69.7097 42.52 69.7697C40.37 70.4897 38.15 70.8497 35.88 70.8497Z" fill="#A1A1A1"/>
<path d="M48.62 67.0597C48.86 66.9997 49.1 66.8797 49.28 66.8197C49.16 66.8197 49.04 66.8797 48.92 66.8797C48.86 66.9397 48.74 66.9997 48.62 67.0597Z" fill="#A1A1A1"/>
<path d="M9.44002 56.7197C10.04 57.9797 10.88 59.1197 11.89 60.1497C12.61 60.8697 13.45 61.5297 14.34 62.0697C13.5 61.4097 12.72 60.7497 12.01 60.0297C10.99 59.0097 10.16 57.9297 9.44002 56.7197Z" fill="#A1A1A1"/>
<path d="M23.86 67.4798C23.74 67.4198 23.56 67.4197 23.44 67.3597C23.68 67.4797 23.98 67.5397 24.22 67.5997C24.1 67.5997 23.98 67.5398 23.86 67.4798Z" fill="#A1A1A1"/>
<path d="M59.03 59.2997C59.81 58.5197 60.53 57.6797 61.24 56.8397C62.38 55.4597 63.39 54.0697 64.35 52.5697C63.81 53.2897 63.21 54.0697 62.56 54.8497C61.42 56.2297 60.17 57.6197 58.73 59.0597C57.65 60.1397 56.4 61.2797 55.08 62.4297C54.78 62.6697 54.54 62.9097 54.24 63.1497C54.72 62.9097 55.2 62.7297 55.62 62.4897C56.16 62.0097 56.7 61.5297 57.29 61.0497C57.83 60.4497 58.43 59.9097 59.02 59.3097L59.03 59.2997Z" fill="#A1A1A1"/>
<path d="M2.21002 36.0897C2.21002 35.1297 2.27002 34.1697 2.39002 33.1997C2.51002 32.1797 2.63002 31.1597 2.81002 30.0697C2.81002 30.1297 2.75002 30.1897 2.75002 30.2497C2.33002 32.2297 2.09002 34.1597 2.09002 36.0197C2.09002 36.7397 2.15002 37.5197 2.27002 38.2397C2.21002 37.5797 2.21002 36.7998 2.21002 36.0798V36.0897Z" fill="#515151"/>
<path d="M67.52 24.4297C67.46 24.2497 67.4 24.0697 67.34 23.8897C67.4 24.0097 67.4 24.1297 67.46 24.2497C67.46 24.3297 67.48 24.3897 67.52 24.4297Z" fill="#515151"/>
<path d="M69.14 32.0097C69.08 31.6497 68.96 31.2897 68.84 30.9297C69.02 31.8297 69.14 32.7897 69.26 33.6997C69.26 33.1597 69.2 32.5597 69.14 32.0197V32.0097Z" fill="#515151"/>
<path d="M69.08 40.4797C69.14 40.1197 69.14 39.7597 69.2 39.3397C69.2 39.1597 69.2 38.9797 69.26 38.7397C69.26 38.9797 69.2 39.2197 69.14 39.5197C69.08 39.9997 68.96 40.5397 68.9 41.0197C68.96 40.8997 69.02 40.6597 69.08 40.4797Z" fill="#515151"/>
<path d="M18.18 6.69975C20.99 5.07975 24.16 3.80975 27.33 2.90975C30.02 1.88975 32.89 1.28975 35.88 1.28975C37.61 1.28975 39.17 1.58975 40.72 2.12975C44.31 2.72975 47.96 3.86975 51.31 5.49975C52.69 6.15975 54 6.87975 55.2 7.65975C56.22 8.07975 57.17 8.55975 58.07 9.15975C58.97 9.75975 59.8 10.4197 60.58 11.1997C62.49 13.1197 64.17 15.4097 65.66 17.9897C64.34 15.2197 62.73 12.8197 60.88 10.9597C54.78 4.94975 44.55 0.739746 35.88 0.739746C27.21 0.739746 16.92 4.94975 10.94 10.9597C7.95002 13.9697 5.74002 17.8097 4.24002 21.8997C5.97002 17.7497 8.37002 13.9597 11.18 11.1397C12.97 9.33975 15.31 7.82975 18.18 6.68975V6.69975Z" fill="#515151"/>
<path d="M43.36 69.6397C47.97 68.6797 52.39 66.8097 56.1 64.4097C54.13 65.4297 52.03 66.1497 49.76 66.6897C47.37 68.0097 45.27 68.9697 43.36 69.6397Z" fill="#515151"/>
<path d="M24.22 67.6598C25.18 68.0198 26.19 68.3797 27.21 68.6797C26.97 68.5597 26.67 68.4398 26.43 68.2598C25.71 68.0798 24.99 67.8998 24.22 67.6598Z" fill="#515151"/>
<path d="M10.94 61.0997C14.53 64.7097 19.19 67.1097 23.92 68.5597C21.53 67.6597 19.25 66.4597 17.16 65.0697C15.78 64.4097 14.59 63.6897 13.63 62.9697C12.73 62.3697 11.9 61.7097 11.12 60.9297C7.95002 57.7397 5.44002 52.9897 3.88002 47.6997C3.40002 46.7997 3.04002 45.8997 2.68002 44.9897C4.00002 50.8197 6.75002 56.8297 10.93 61.0997H10.94Z" fill="#515151"/>
<path d="M42.52 68.7998C42.46 68.7998 42.4 68.7997 42.28 68.8597C41.98 68.9797 41.74 69.0398 41.44 69.1598C41.8 68.9798 42.16 68.9198 42.52 68.7998Z" fill="#515151"/>
<path d="M63.81 56.5397C64.47 55.4597 65.13 54.3197 65.66 53.1097C65.3 53.6497 64.94 54.2497 64.58 54.7297C64.34 55.3897 64.1 55.9897 63.8 56.5297L63.81 56.5397Z" fill="#515151"/>
<path d="M67.52 47.5197C67.04 48.4797 66.44 49.4397 65.85 50.4097C65.79 50.7097 65.73 51.0097 65.67 51.3097C66.39 50.0497 67.05 48.7297 67.64 47.3997C67.58 47.3997 67.58 47.4597 67.52 47.5197Z" fill="#515151"/>
<path d="M7.89002 26.3497C7.95002 26.1697 8.07002 25.9897 8.13002 25.8697C8.37002 24.9097 8.61002 23.9497 8.91002 23.0397C9.03002 22.6197 9.21002 22.1997 9.39002 21.8397C9.03002 22.3197 8.73002 22.8597 8.37002 23.3997C8.13002 23.8197 7.89002 24.2397 7.65002 24.6597C7.47002 24.9597 7.35002 25.2597 7.17002 25.5597C7.05002 25.7997 6.99002 25.9797 6.87002 26.2197C6.81002 26.8197 6.75002 27.4797 6.69002 28.0797C6.57002 28.9197 6.45002 29.8197 6.33002 30.7897C6.39002 30.4897 6.45002 30.1897 6.57002 29.9497C6.93002 28.6897 7.41002 27.4797 7.89002 26.3397V26.3497Z" fill="#454545"/>
<path d="M44.61 66.3397C43.89 66.3997 43.17 66.4597 42.4 66.5197C42.04 66.6397 41.68 66.7597 41.32 66.8197C42.1 66.7597 42.93 66.6997 43.71 66.6397C44.01 66.5197 44.31 66.4597 44.61 66.3397Z" fill="#454545"/>
<path d="M9.26002 54.4297C9.26002 54.3697 9.20002 54.3097 9.20002 54.2497C9.02002 54.0697 8.84002 53.8297 8.72002 53.6497C8.90002 53.9497 9.08002 54.1897 9.26002 54.4297Z" fill="#454545"/>
<path d="M2.98002 30.1997C3.04002 29.8997 3.10002 29.5997 3.16002 29.2997C3.04002 29.5997 2.92002 29.8397 2.86002 30.1397C2.68002 31.1597 2.50002 32.1797 2.44002 33.2697C2.50002 32.1897 2.74002 31.1697 2.98002 30.1997Z" fill="#454545"/>
<path d="M68.9 30.9197C68.84 30.6797 68.72 30.4397 68.66 30.1997C68.9 32.1197 69.08 34.1097 69.08 36.0897C69.08 38.4897 68.6 40.7197 67.82 42.7597C67.76 43.0597 67.7 43.2997 67.7 43.5997C67.64 43.7797 67.64 43.9597 67.58 44.1397C67.46 44.8597 67.28 45.5797 67.1 46.2397C67.7 44.9797 68.24 43.7697 68.6 42.5097C68.78 41.9697 68.9 41.4297 69.08 40.8897C69.08 40.7097 69.14 40.5897 69.14 40.4097C69.08 40.5897 69.02 40.8297 68.96 41.0097C69.08 40.5297 69.14 40.0497 69.2 39.5697C69.26 39.2697 69.26 39.0297 69.32 38.7897C69.38 37.8297 69.44 36.9298 69.44 36.0798C69.44 35.2998 69.44 34.5197 69.38 33.7397C69.2 32.7797 69.08 31.9397 68.9 30.9097V30.9197Z" fill="#454545"/>
<path d="M49.7 66.6997C49.58 66.6997 49.46 66.7598 49.34 66.7598C49.1 66.8798 48.86 66.9397 48.68 66.9997C46.71 68.1397 44.67 69.0997 42.52 69.7697C42.82 69.7097 43.12 69.6497 43.42 69.5897C45.27 68.9897 47.43 68.0897 49.7 66.6997Z" fill="#454545"/>
<path d="M23.92 68.5597C26.19 69.2797 28.47 69.7597 30.62 70.0597C29.42 69.6997 28.29 69.2197 27.21 68.6797C26.19 68.3797 25.24 68.0198 24.22 67.6598C23.98 67.5998 23.68 67.4797 23.44 67.4197C20.99 66.7597 18.89 65.9797 17.16 65.1397C19.25 66.4597 21.59 67.6697 23.92 68.5697V68.5597Z" fill="#454545"/>
<path d="M6.09002 48.4197C6.27002 48.6597 6.45002 48.9597 6.57002 49.1997C6.69002 49.3197 6.75002 49.4997 6.87002 49.6197C6.93002 49.6797 6.93002 49.7397 6.99002 49.7997C7.23002 50.1597 7.53002 50.5197 7.77002 50.8797C7.77002 50.8797 7.77002 50.9397 7.83002 50.9397C7.83002 50.8797 7.77002 50.8197 7.77002 50.7597C7.77002 50.6997 7.71002 50.6397 7.71002 50.5797C7.59002 50.2797 7.53002 50.0397 7.47002 49.7397C7.29002 49.4997 7.17002 49.2597 6.99002 48.9597C6.93002 48.8397 6.87002 48.7197 6.81002 48.5997C6.69002 48.4197 6.63002 48.2397 6.51002 48.0597C6.21002 47.5197 5.91002 46.9797 5.67002 46.3797C5.73002 46.6797 5.79002 46.9197 5.85002 47.2197C5.91002 47.6997 6.03002 48.0597 6.09002 48.4197Z" fill="#454545"/>
<path d="M19.61 64.5897C19.01 64.2897 18.47 63.9897 17.88 63.6897C15.97 62.6097 14.17 61.2897 12.5 59.5997C11.24 58.3397 10.05 57.0097 8.97002 55.6897C8.91002 55.5697 8.79002 55.5097 8.73002 55.3897C8.61002 55.2697 8.55002 55.1497 8.43002 55.0297C8.67002 55.4497 8.91002 55.8697 9.15002 56.2897C9.27002 56.4697 9.33002 56.6497 9.45002 56.7697C10.23 57.9697 11.06 59.0497 12.08 60.0197C12.98 60.9197 13.99 61.7597 15.07 62.4897C15.13 62.5497 15.25 62.6097 15.31 62.6697C15.91 63.0897 16.57 63.4497 17.22 63.8097C18 64.0497 18.77 64.3497 19.61 64.5897Z" fill="#454545"/>
<path d="M51.07 9.69975C50.65 9.27975 50.23 8.85975 49.81 8.43975C49.63 8.25975 49.39 8.07975 49.21 7.83975C49.15 7.77975 49.03 7.71975 48.97 7.65975C48.55 7.47975 48.13 7.35975 47.71 7.17975C47.59 7.17975 47.47 7.17975 47.35 7.11975C47.89 7.41975 48.37 7.71975 48.91 8.07975C49.63 8.61975 50.35 9.15975 51.06 9.69975H51.07Z" fill="#454545"/>
<path d="M6.39002 45.7097C6.39002 45.7497 6.41002 45.7897 6.45002 45.8297C6.51002 45.9497 6.57002 46.0697 6.63002 46.1897C6.57002 45.7097 6.45002 45.2297 6.39002 44.7497C6.39002 44.6297 6.33002 44.5097 6.33002 44.3897C6.33002 44.6297 6.39002 44.9297 6.39002 45.1697V45.7097Z" fill="#454545"/>
<path d="M26.13 6.87975C26.19 6.87975 26.19 6.81975 26.25 6.81975C26.31 6.81975 26.31 6.75975 26.37 6.75975C26.31 6.75975 26.19 6.81975 26.13 6.87975C26.01 6.87975 25.89 6.87975 25.77 6.93975C25.83 6.93975 25.95 6.93975 26.01 6.87975C26.13 6.87975 26.13 6.87975 26.13 6.87975Z" fill="#454545"/>
<path d="M60.4 11.3897C63.45 14.4597 65.84 18.8497 67.34 23.8997C67.4 24.0797 67.46 24.2597 67.52 24.4397C67.76 24.7997 67.94 25.1597 68.18 25.5197C67.64 23.2397 66.98 21.0697 66.09 19.0897C65.91 18.7297 65.79 18.3697 65.61 18.0097C64.17 15.4197 62.44 13.1397 60.53 11.2197C59.75 10.4397 58.92 9.77975 58.02 9.17975C57.12 8.57975 56.17 8.09975 55.15 7.67975C55.57 7.91975 55.93 8.21975 56.35 8.45975C57.85 9.29975 59.22 10.1997 60.42 11.4097L60.4 11.3897Z" fill="#454545"/>
<path d="M5.08002 22.2697C4.60002 23.3497 4.24002 24.4297 3.88002 25.5797C4.00002 25.3997 4.06002 25.2197 4.18002 25.0397C4.42002 24.1397 4.72002 23.2397 5.08002 22.2697Z" fill="#454545"/>
<path d="M2.27002 38.2597C2.15002 37.5397 2.09002 36.8197 2.09002 36.0997C2.09002 34.2397 2.33002 32.3097 2.75002 30.3297C2.69002 30.5697 2.57002 30.8097 2.51002 31.1097C2.21002 32.7897 2.09002 34.4797 2.09002 36.0997C2.09002 36.9997 2.15002 37.8997 2.27002 38.8097V38.2597Z" fill="#454545"/>
<path d="M47.96 64.8897C48.08 64.8297 48.2 64.7697 48.32 64.7097C48.62 64.5297 48.98 64.3497 49.28 64.1697C49.94 63.8097 50.6 63.3897 51.25 62.9697L51.31 62.9097C51.91 62.4897 52.51 62.0697 53.1 61.6497C54.77 60.3897 56.27 59.0597 57.53 57.7997C59.03 56.2997 60.52 54.7897 61.9 53.1697C62.02 52.9297 62.14 52.7497 62.26 52.5097C62.44 52.2697 62.68 52.0897 62.86 51.8497C62.92 51.7897 62.98 51.7297 63.04 51.6697C63.22 51.3697 63.46 51.0697 63.64 50.7697C64.18 49.8697 64.72 49.0297 65.2 48.1197C65.2 47.9397 65.26 47.6997 65.26 47.5197V47.4597C65.14 47.6997 64.96 47.8797 64.84 48.1197C64.48 48.5997 64.12 49.1397 63.76 49.6197C63.7 49.6797 63.7 49.7397 63.64 49.7997C62.86 50.7597 62.09 51.7197 61.25 52.6297C61.07 52.8697 60.89 53.0497 60.71 53.2897C59.63 54.6697 58.44 56.0597 57.06 57.3797C55.62 58.8197 54.19 60.0297 52.69 61.1697C52.03 61.6497 51.43 62.0697 50.78 62.4897C50.12 62.9097 49.46 63.2697 48.75 63.6297C48.45 63.8097 48.09 63.9297 47.79 64.1097C47.43 64.2897 47.13 64.4697 46.77 64.5897C46.65 64.6497 46.47 64.7097 46.35 64.7697C46.17 64.8297 45.99 64.9498 45.87 65.0098C45.75 65.0698 45.63 65.1297 45.51 65.1897C46.23 65.1297 46.89 65.0097 47.6 64.9497C47.66 64.9497 47.78 64.9497 47.96 64.8897Z" fill="#454545"/>
<path d="M27.15 67.0597C26.73 66.9397 26.25 66.8798 25.83 66.7598C25.89 66.7598 25.89 66.8197 25.95 66.8197C26.31 66.9397 26.73 66.9997 27.15 67.0597Z" fill="#454545"/>
<path d="M41.5 69.0997C41.8 69.0397 42.04 68.9198 42.34 68.7998C40.07 69.2198 37.85 69.4597 35.88 69.4597C34.38 69.4597 32.65 69.3397 30.86 69.0997C32.47 69.5797 34.15 69.8797 35.88 69.8797C37.79 69.8797 39.65 69.6397 41.5 69.0997Z" fill="#454545"/>
<path d="M6.81002 50.9397C6.45002 50.3997 6.09002 49.7997 5.79002 49.2597C5.67002 49.0797 5.55002 48.8997 5.49002 48.7197C5.61002 49.1397 5.79002 49.5597 5.97002 49.9797C6.03002 50.0397 6.09002 50.0997 6.09002 50.1597C6.33002 50.5197 6.63002 50.9397 6.87002 51.2997C6.87002 51.1797 6.81002 51.1197 6.81002 50.9997V50.9397Z" fill="#484848"/>
<path d="M1.13002 36.0897C1.13002 34.1097 1.37002 32.0597 1.85002 30.0197C1.73002 30.3197 1.67002 30.5597 1.55002 30.8597C1.25002 32.5997 1.13002 34.3497 1.13002 36.0897C1.13002 38.1297 1.43002 40.1797 2.03002 42.0397C1.97002 41.6797 1.91002 41.3197 1.85002 40.9597C1.43002 39.3997 1.13002 37.7697 1.13002 36.0897Z" fill="#484848"/>
<path d="M63.99 21.8497C63.87 21.7297 63.81 21.6097 63.69 21.5497C63.75 21.6097 63.75 21.7297 63.81 21.7897C64.35 22.6297 64.83 23.4697 65.31 24.3097C65.19 23.8897 65.07 23.4697 64.95 23.1097C64.59 22.6897 64.29 22.2697 63.99 21.8497Z" fill="#484848"/>
<path d="M55.38 63.6897C55.44 63.6297 55.5 63.6297 55.56 63.5697C55.02 63.8097 54.54 64.1097 54 64.2897C54.42 64.1097 54.9 63.9297 55.38 63.6897Z" fill="#484848"/>
<path d="M63.75 54.3697C63.51 54.9697 63.27 55.5697 62.97 56.1097C63.69 55.0297 64.29 53.8897 64.82 52.6797C64.46 53.2197 64.1 53.8197 63.74 54.3597L63.75 54.3697Z" fill="#484848"/>
<path d="M58.37 13.4897C59.99 15.1097 61.42 16.9197 62.68 18.7797C62.98 19.1397 63.28 19.4397 63.52 19.7997C63.22 19.1997 62.92 18.5997 62.56 17.9997C61.48 16.1997 60.23 14.5697 58.73 13.0697C56.58 10.9097 54.18 9.21975 51.79 8.01975C51.43 7.83975 51.01 7.65975 50.65 7.47975H50.59C50.83 7.59975 51.07 7.77975 51.31 7.95975C53.82 9.39975 56.15 11.2697 58.37 13.4897Z" fill="#3D3D3D"/>
<path d="M4.24002 47.1597C4.60002 48.2997 4.96002 49.4397 5.44002 50.5897C5.80002 51.1897 6.16002 51.7897 6.58002 52.3297C6.82002 52.6897 7.06002 52.9897 7.30002 53.3497V53.2297C7.24002 53.0497 7.24002 52.8697 7.18002 52.6297C6.88002 52.0897 6.64002 51.5497 6.40002 50.9497C6.28002 50.5897 6.10002 50.2297 5.98002 49.9297C5.80002 49.5097 5.68002 49.0897 5.50002 48.6697C5.20002 48.2497 4.96002 47.8297 4.78002 47.4097C4.42002 46.7497 4.12002 46.0897 3.88002 45.4297C3.88002 45.3697 3.82002 45.3697 3.82002 45.3097C3.76002 45.1897 3.70002 45.1297 3.64002 45.0097C3.82002 45.6697 4.00002 46.3897 4.18002 47.0497C4.18002 47.0897 4.20002 47.1297 4.24002 47.1697V47.1597Z" fill="#3D3D3D"/>
<path d="M48.98 66.8797C49.1 66.8797 49.22 66.8197 49.34 66.8197C49.58 66.6997 49.82 66.6397 50.12 66.5197C50.9 66.0397 51.74 65.4997 52.57 64.8997C52.27 65.0197 51.91 65.1397 51.55 65.1997C50.71 65.7997 49.82 66.3397 48.98 66.8797Z" fill="#3D3D3D"/>
<path d="M26.79 5.79975C26.85 5.73975 26.91 5.73975 26.97 5.67975C26.85 5.73975 26.79 5.73975 26.67 5.79975C26.73 5.85975 26.79 5.79975 26.79 5.79975Z" fill="#3D3D3D"/>
<path d="M25.11 7.05975C24.93 7.05975 24.75 7.11975 24.63 7.11975C24.45 7.11975 24.27 7.17975 24.09 7.17975C23.79 7.35975 23.49 7.53975 23.19 7.71975C23.07 7.83975 22.89 7.89975 22.77 8.01975C22.65 8.07975 22.53 8.13975 22.47 8.25975C22.29 8.37975 22.17 8.43975 21.99 8.55975C22.11 8.49975 22.17 8.43975 22.29 8.37975C22.41 8.31975 22.59 8.25975 22.71 8.19975C22.83 8.13975 22.95 8.07975 23.07 8.01975C23.61 7.77975 24.15 7.53975 24.68 7.35975L24.86 7.23975L24.98 7.11975C25.04 7.05975 25.04 7.05975 25.1 7.05975H25.11Z" fill="#3D3D3D"/>
<path d="M64.95 50.0397C65.31 49.4997 65.61 48.9597 65.91 48.4797C65.61 48.8397 65.31 49.2597 65.01 49.6197C65.01 49.7397 64.95 49.8597 64.95 50.0397Z" fill="#3D3D3D"/>
<path d="M35.88 5.30975C36.96 5.30975 38.09 5.36975 39.29 5.42975C39.65 5.42975 39.95 5.42975 40.25 5.42975C38.87 5.12975 37.38 5.00975 35.88 5.00975C33.55 5.00975 31.39 5.12975 29.36 5.30975C29.06 5.42975 28.76 5.54975 28.46 5.72975C29.84 5.60975 31.21 5.54975 32.53 5.54975C33.61 5.36975 34.74 5.30975 35.88 5.30975Z" fill="#3E3E3E"/>
<path d="M8.96002 18.4797C8.36002 19.1397 7.82002 19.7997 7.29002 20.5197C6.75002 21.5397 6.27002 22.5597 5.85002 23.5897C6.63002 22.2697 7.52002 20.9497 8.48002 19.6197C8.60002 19.2597 8.78002 18.8397 8.96002 18.4797Z" fill="#3E3E3E"/>
<path d="M13.63 13.7297C15.07 12.2897 16.5 11.0297 17.94 9.81975C16.38 10.8997 14.89 12.1597 13.51 13.5497C13.15 13.9097 12.79 14.2697 12.43 14.6297C11.95 15.2297 11.53 15.7697 11.17 16.3697C11.65 15.8297 12.13 15.2897 12.67 14.8097C12.97 14.3897 13.27 14.0897 13.63 13.7297Z" fill="#3E3E3E"/>
<path d="M1.13002 36.0997C1.13002 34.4197 1.31002 32.6697 1.61002 30.8697C1.07002 32.5497 0.77002 34.2997 0.77002 36.0997C0.77002 38.9297 1.43002 41.9297 2.62002 45.0597C2.38002 44.0397 2.20002 43.0797 2.02002 42.1097C1.42002 40.1297 1.12002 38.1397 1.12002 36.0997H1.13002Z" fill="#3E3E3E"/>
<path d="M63.99 21.8497C63.87 21.6697 63.75 21.4897 63.57 21.3097C63.63 21.3697 63.63 21.4297 63.63 21.4897C63.81 21.6697 63.87 21.7897 63.99 21.8497Z" fill="#3E3E3E"/>
<path d="M66.27 36.1597C66.27 33.7597 66.15 31.5297 65.85 29.4297C65.67 28.8297 65.43 28.2297 65.19 27.6297C65.79 30.2797 66.09 33.0997 66.09 36.1697C66.09 38.5097 65.97 41.0997 65.67 43.6297C65.91 42.9097 66.09 42.2497 66.21 41.5297C66.27 40.0897 66.27 38.6997 66.27 37.3197V36.1597Z" fill="#3E3E3E"/>
<path d="M52.51 64.8297C51.67 65.4297 50.9 65.9697 50.06 66.4497C51.85 65.6697 53.65 64.7697 55.32 63.6797C54.9 63.9197 54.42 64.0997 53.94 64.2797C53.52 64.5197 52.98 64.6997 52.5 64.8197L52.51 64.8297Z" fill="#3E3E3E"/>
<path d="M60.46 60.7997C59.14 62.1197 57.65 63.3197 56.03 64.4097C57.7 63.5097 59.26 62.4297 60.64 61.0397C61.96 59.7197 62.97 58.2097 63.81 56.5897C62.85 58.0897 61.78 59.5397 60.46 60.7997Z" fill="#3E3E3E"/>
<path d="M66.51 45.5897C66.45 45.6497 66.39 45.7697 66.33 45.8997C66.39 45.8397 66.45 45.7197 66.51 45.5897Z" fill="#3E3E3E"/>
<path d="M64.29 52.6297C64.11 53.2297 63.93 53.7697 63.69 54.3697C64.05 53.8297 64.41 53.2897 64.77 52.6897C65.07 52.0297 65.37 51.3097 65.67 50.6497C65.25 51.2497 64.29 52.5697 64.29 52.6297Z" fill="#3E3E3E"/>
<path d="M48.62 65.9197C48.32 65.9797 48.08 66.0397 47.78 66.0997C47.72 66.0997 47.66 66.0998 47.6 66.1598C47.54 66.2198 47.42 66.2797 47.36 66.3397C46.7 66.7597 46.1 67.1198 45.45 67.4798C45.63 67.4798 45.81 67.4197 46.05 67.4197C46.89 66.9397 47.79 66.4597 48.62 65.9197Z" fill="#3E3E3E"/>
<path d="M20.03 63.6897C17.58 62.4897 15.25 60.9197 13.15 58.8797C11.83 57.5597 10.64 56.2297 9.56002 54.8497C9.80002 55.3297 10.04 55.8097 10.28 56.2297C11 57.3697 11.84 58.3297 12.73 59.2397C15 61.5197 17.81 63.1497 20.8 64.2897C20.56 64.1097 20.32 63.9297 20.02 63.6897H20.03Z" fill="#3E3E3E"/>
<path d="M58.19 13.6097C59.09 14.5097 59.92 15.4697 60.7 16.4997C61.36 17.2197 62.08 17.9397 62.73 18.7197C61.47 16.8597 60.04 15.1097 58.42 13.4297C56.27 11.2697 53.87 9.33975 51.42 7.77975C51.24 7.71975 51 7.71975 50.82 7.65975C52.32 8.67975 53.81 9.81975 55.31 11.1497C56.27 11.8697 57.22 12.7097 58.18 13.6197L58.19 13.6097Z" fill="#3E3E3E"/>
<path d="M5.91002 49.9797C6.03002 50.3397 6.21002 50.6997 6.33002 50.9997C6.57002 51.5397 6.81002 52.1397 7.11002 52.6797C6.99002 52.2597 6.93002 51.7797 6.87002 51.2997C6.57002 50.9397 6.33002 50.5197 6.09002 50.1597C6.03002 50.0997 5.97002 50.0397 5.91002 49.9797Z" fill="#3E3E3E"/>
<path d="M44.73 66.6997C43.65 67.1197 42.64 67.4797 41.56 67.7797C41.86 67.7797 42.16 67.7197 42.52 67.7197C43.24 67.4197 44.02 67.0597 44.73 66.6997Z" fill="#3E3E3E"/>
<path d="M65.91 24.6097C65.73 24.1897 65.55 23.7697 65.31 23.3497C65.13 23.1097 64.95 22.9297 64.77 22.6897C64.53 22.3897 64.29 22.1497 63.99 21.8497C64.29 22.2697 64.59 22.6297 64.89 23.0497C65.25 23.5897 65.61 24.0697 65.91 24.6097Z" fill="#2D2D2D"/>
<path d="M19.61 63.2697C20.21 63.5697 20.87 63.8697 21.52 64.1697C20.5 63.3297 19.49 62.4897 18.53 61.5797C17.51 60.9797 16.5 60.2597 15.6 59.5397C16.86 60.7997 18.17 62.0597 19.61 63.2697Z" fill="#2D2D2D"/>
<path d="M24.82 5.84975C24.88 5.84975 25 5.84975 25.06 5.78975C25.18 5.66975 25.3 5.60975 25.42 5.48975C25.78 5.24975 26.14 5.00975 26.5 4.76975C26.68 4.64975 26.8 4.58975 26.98 4.46975C26.86 4.46975 26.74 4.52975 26.62 4.52975C25.54 4.94975 24.47 5.48975 23.39 6.08975C23.69 6.02975 23.99 5.96975 24.29 5.90975C24.47 5.96975 24.65 5.90975 24.83 5.84975H24.82Z" fill="#2D2D2D"/>
<path d="M8.49002 51.9097C8.25002 51.6097 8.01002 51.3097 7.83002 51.0097C8.25002 52.2097 8.67002 53.2897 9.21002 54.3197C9.33002 54.4397 9.39002 54.5597 9.51002 54.6797C9.09002 53.7797 8.79002 52.8797 8.49002 51.9097Z" fill="#2D2D2D"/>
<path d="M68.48 29.2397C68.54 29.4197 68.6 29.5997 68.6 29.7797C68.72 30.0797 68.84 30.3197 68.96 30.6197C68.96 30.6797 69.02 30.7397 69.02 30.7997C69.14 31.0397 69.2 31.3397 69.32 31.5797C69.2 30.9197 69.08 30.3197 68.96 29.6597C68.84 29.1797 68.72 28.6997 68.6 28.2197C68.54 27.9797 68.48 27.7397 68.42 27.4997C68.36 27.3797 68.24 27.2597 68.18 27.0797C68.12 26.9597 68.06 26.8997 68 26.7797C68.06 27.1397 68.12 27.4997 68.24 27.7997C68.36 28.3397 68.42 28.7597 68.48 29.2397Z" fill="#2D2D2D"/>
<path d="M11.6 11.6897C13.45 9.82975 15.73 8.13975 18.24 6.69975C15.37 7.83975 13.04 9.34975 11.18 11.2097C8.37002 14.0397 5.98002 17.8197 4.24002 21.9697C3.58002 23.7097 3.04002 25.5197 2.63002 27.2597C3.65002 23.9497 5.26002 20.6497 7.24002 17.6397C8.44002 15.4197 9.87002 13.3697 11.61 11.6897H11.6Z" fill="#2D2D2D"/>
<path d="M3.16002 45.0497C3.04002 44.5097 2.98002 44.0297 2.86002 43.4897C2.44002 42.6497 2.14002 41.8097 1.84002 40.9097C1.84002 41.2697 1.96002 41.6297 2.02002 41.9897C2.32002 43.0697 2.74002 44.0897 3.16002 45.0597V45.0497Z" fill="#2D2D2D"/>
<path d="M7.11002 52.6897C7.41002 53.2897 7.71002 53.8897 8.07002 54.4297C8.19002 54.6097 8.37002 54.7897 8.49002 54.9697C7.95002 53.8897 7.41002 52.6897 6.99002 51.4197C6.93002 51.3597 6.93002 51.2997 6.87002 51.2997C6.87002 51.7797 6.93002 52.1997 7.11002 52.6797V52.6897Z" fill="#2D2D2D"/>
<path d="M22.54 64.9497C22.36 64.8297 22.18 64.6497 22 64.5297C21.64 64.4697 21.22 64.4097 20.86 64.3497C21.4 64.5897 21.94 64.7697 22.53 64.9497H22.54Z" fill="#2D2D2D"/>
<path d="M8.97002 18.4797C8.79002 18.8397 8.67002 19.2597 8.49002 19.6197C9.33002 18.5397 10.22 17.4597 11.18 16.3097C11.54 15.7097 11.96 15.1697 12.44 14.6297C11.24 15.8897 10.11 17.1597 8.97002 18.4797Z" fill="#2D2D2D"/>
<path d="M6.75002 46.9197C6.99002 47.2797 7.23002 47.6397 7.47002 47.9997C7.47002 47.9397 7.47002 47.8797 7.47002 47.8797C7.17002 47.3397 6.87002 46.7397 6.63002 46.1997C6.69002 46.4397 6.69002 46.6797 6.75002 46.9197Z" fill="#2D2D2D"/>
<path d="M46.65 5.72975H46.89C46.53 5.42975 46.17 5.12975 45.75 4.88975C45.75 4.88975 45.75 4.88975 45.69 4.88975C45.57 4.82975 45.45 4.76975 45.33 4.70975C45.27 4.70975 45.21 4.64975 45.15 4.64975C43.89 4.16975 42.7 3.74975 41.44 3.44975C41.68 3.56975 41.86 3.68975 42.04 3.74975C42.28 3.86975 42.58 3.98975 42.82 4.16975C43 4.22975 43.18 4.28975 43.36 4.34975C44.5 4.70975 45.57 5.18975 46.65 5.72975Z" fill="#2D2D2D"/>
<path d="M8.85002 21.6597C9.03002 21.1197 9.15002 20.5797 9.39002 20.0997C9.21002 20.3397 9.03002 20.5797 8.85002 20.8197C8.43002 21.4197 8.01002 22.0197 7.65002 22.5597C7.53002 22.8597 7.53002 23.0997 7.47002 23.3997C7.71002 23.0997 7.95002 22.7997 8.19002 22.4997C8.37002 22.1997 8.61002 21.9597 8.85002 21.6597Z" fill="#2D2D2D"/>
<path d="M55.56 63.5697C55.5 63.6297 55.44 63.6297 55.38 63.6897C57.11 62.8497 58.67 61.8297 60.05 60.3797C61.55 58.8797 63.16 56.9497 64.6 54.7897C64.96 54.2497 65.32 53.7097 65.68 53.1697C66.64 51.1297 67.35 49.0197 67.89 46.9197C67.89 46.8597 67.95 46.7397 67.95 46.6797C69.09 44.3997 69.8 42.1697 70.22 39.9497C69.92 41.0897 69.56 42.1697 69.08 43.2597C68.78 44.3397 68.42 45.3597 68.06 46.3897C67.94 46.6897 67.82 46.9897 67.7 47.2897C67.7 47.3497 67.64 47.4097 67.64 47.4097C67.04 48.7897 66.38 50.1197 65.67 51.3197C65.37 51.7997 65.13 52.2797 64.83 52.6997C64.29 53.8997 63.63 55.0397 62.98 56.1297C62.08 57.5697 61.01 58.9597 59.81 60.1597C58.49 61.4197 57.06 62.5597 55.56 63.5897V63.5697Z" fill="#2D2D2D"/>
<path d="M52.15 63.9297C51.85 64.0497 51.19 64.2297 51.19 64.2297C51.19 64.2297 51.13 64.2297 51.13 64.2897C50.41 64.8297 49.63 65.3097 48.86 65.7897C49.1 65.7297 49.34 65.6697 49.58 65.6697C50.48 65.0697 51.43 64.5297 52.15 63.9297Z" fill="#2D2D2D"/>
<path d="M61.54 53.8897C60.4 55.3297 59.15 56.7197 57.77 58.1597C56.33 59.5997 54.9 60.8697 53.4 61.9497C55.07 60.9297 56.57 59.7897 57.95 58.3397C59.33 56.8997 60.52 55.4497 61.54 53.8897Z" fill="#2D2D2D"/>
<path d="M45.03 66.2797C45.21 66.2797 45.33 66.2197 45.51 66.2197C45.69 66.0997 45.87 65.9797 46.05 65.9197C45.75 66.0397 45.39 66.1597 45.03 66.2797Z" fill="#2D2D2D"/>
<path d="M30.11 41.3797C27.76 41.3797 26.37 40.0697 26.37 36.8797V31.5797H28.28V37.0497C28.28 39.0397 28.98 39.7197 30.11 39.7197C31.24 39.7197 31.98 39.0397 31.98 37.0497V31.5797H33.83V36.8797C33.83 40.0597 32.46 41.3797 30.11 41.3797Z" fill="black"/>
<path d="M37.44 41.1997V31.5797H40.6C42.72 31.5797 44.36 32.3197 44.36 34.6097C44.36 36.8997 42.72 37.7797 40.66 37.7797H39.37V41.1997H37.44ZM39.36 36.2597H40.52C41.85 36.2597 42.48 35.6997 42.48 34.6097C42.48 33.5197 41.78 33.1197 40.45 33.1197H39.36V36.2697V36.2597Z" fill="black"/>
</g>
<defs>
<clipPath id="clip0_352_6305">
<rect width="72" height="72" fill="white"/>
</clipPath>
</defs>
</svg>
